SplineFontDB: 3.2
FontName: Planetside2-DemiBold
FullName: Planetside2 DemiBold
FamilyName: Planetside2
Weight: Bold
Version: 2.00 July, 2012, beta release
ItalicAngle: 0
UnderlinePosition: -285
UnderlineWidth: 150
Ascent: 1638
Descent: 410
InvalidEm: 0
sfntRevision: 0x00010000
LayerCount: 2
Layer: 0 1 "Back" 1
Layer: 1 1 "Fore" 0
XUID: [1021 87 -869664314 22246]
StyleMap: 0x0020
FSType: 14
OS2Version: 2
OS2_WeightWidthSlopeOnly: 0
OS2_UseTypoMetrics: 0
CreationTime: 1305727833
ModificationTime: 1617345257
PfmFamily: 17
TTFWeight: 700
TTFWidth: 5
LineGap: 0
VLineGap: 0
Panose: 2 11 7 4 2 2 2 5 2 4
OS2TypoAscent: 1365
OS2TypoAOffset: 0
OS2TypoDescent: -410
OS2TypoDOffset: 0
OS2TypoLinegap: 478
OS2WinAscent: 1789
OS2WinAOffset: 0
OS2WinDescent: 426
OS2WinDOffset: 0
HheadAscent: 1638
HheadAOffset: 0
HheadDescent: -410
HheadDOffset: 0
OS2SubXSize: 856
OS2SubYSize: 838
OS2SubXOff: 0
OS2SubYOff: 0
OS2SupXSize: 856
OS2SupYSize: 838
OS2SupXOff: 0
OS2SupYOff: 845
OS2StrikeYSize: 150
OS2StrikeYPos: 530
OS2CapHeight: 1366
OS2XHeight: 969
OS2Vendor: 'URW '
OS2CodePages: 20000001.00000000
OS2UnicodeRanges: 00000003.00000000.00000000.00000000
Lookup: 258 0 0 "'kern' Horizontal Kerning in Latin lookup 0" { "'kern' Horizontal Kerning in Latin lookup 0 subtable"  } ['kern' ('latn' <'dflt' > ) ]
DEI: 91125
TtTable: prep
NPUSHB
 10
 3
 3
 2
 2
 1
 1
 0
 0
 0
 48
PUSHW_1
 292
SCANCTRL
SCVTCI
SZP0
SVTCA[y-axis]
MIAP[rnd]
MIAP[rnd]
MIAP[rnd]
MIAP[rnd]
SVTCA[x-axis]
EndTTInstrs
ShortTable: cvt  4
  0
  1365
  956
  -410
EndShort
ShortTable: maxp 16
  1
  0
  270
  78
  7
  62
  4
  2
  4
  0
  0
  0
  40
  24
  2
  1
EndShort
LangName: 1033 "" "" "" "Planetside2 DemiBold:Version 2.00" "" "Version 2.00 July, 2012, beta release" "" "" "" "" "" "" "" "" "" "" "" "" "" "not included."
Encoding: UnicodeBmp
UnicodeInterp: none
NameList: AGL For New Fonts
DisplaySize: -48
AntiAlias: 1
FitToEm: 0
WinInfo: 0 39 14
BeginChars: 65568 270

StartChar: .notdef
Encoding: 65536 -1 0
Width: 682
Flags: W
LayerCount: 2
Fore
SplineSet
601 1364 m 1,0,-1
 601 -3 l 1,1,-1
 70 -3 l 1,2,-1
 70 1365 l 1,3,-1
 601 1364 l 1,0,-1
169 1251 m 1,4,-1
 169 110 l 1,5,-1
 502 109 l 1,6,-1
 502 1251 l 1,7,-1
 169 1251 l 1,4,-1
EndSplineSet
EndChar

StartChar: A
Encoding: 65 65 5
Width: 1132
Flags: W
LayerCount: 2
Fore
SplineSet
309 405 m 1,0,-1
 309 0 l 1,1,-1
 66 0 l 1,2,-1
 66 574 l 1,3,-1
 424 1364 l 1,4,-1
 712 1364 l 1,5,-1
 1059 576 l 1,6,-1
 1059 0 l 1,7,-1
 828 0 l 1,8,-1
 828 405 l 1,9,-1
 309 405 l 1,0,-1
795 615 m 1,10,-1
 561 1147 l 1,11,-1
 330 615 l 1,12,-1
 795 615 l 1,10,-1
EndSplineSet
EndChar

StartChar: B
Encoding: 66 66 6
Width: 1210
Flags: W
LayerCount: 2
Fore
SplineSet
73 0 m 1,0,-1
 70 0 l 1,1,-1
 70 1363 l 1,2,-1
 890 1363 l 2,3,4
 1124 1365 1124 1365 1124 1166 c 2,5,-1
 1124 899 l 1,6,7
 1137 713 1137 713 1008 715 c 1,8,9
 1145 720 1145 720 1145 557 c 2,10,-1
 1145 184 l 2,11,12
 1147 0 1147 0 902 0 c 2,13,-1
 73 0 l 1,0,-1
316 1158 m 1,14,-1
 316 820 l 1,15,-1
 804 820 l 1,16,17
 866 826 866 826 866 887 c 2,18,-1
 866 1102 l 1,19,20
 858 1158 858 1158 789 1158 c 2,21,-1
 316 1158 l 1,14,-1
316 613 m 1,22,-1
 316 205 l 1,23,-1
 825 205 l 1,24,25
 885 211 885 211 885 273 c 2,26,-1
 885 559 l 2,27,28
 885 613 885 613 833 613 c 2,29,-1
 316 613 l 1,22,-1
EndSplineSet
EndChar

StartChar: C
Encoding: 67 67 7
Width: 1263
Flags: W
LayerCount: 2
Fore
SplineSet
812 1366 m 2,0,1
 1184 1369 1184 1369 1184 1071 c 2,2,-1
 1184 940 l 1,3,-1
 930 940 l 1,4,-1
 930 1100 l 1,5,6
 923 1156 923 1156 852 1156 c 2,7,-1
 467 1156 l 2,8,9
 322 1156 322 1156 317 1022 c 1,10,-1
 317 349 l 2,11,12
 317 225 317 225 449 219 c 1,13,-1
 868 219 l 1,14,15
 930 225 930 225 930 287 c 2,16,-1
 930 427 l 1,17,-1
 1184 427 l 1,18,-1
 1184 281 l 2,19,20
 1187 1 1187 1 808 1 c 2,21,-1
 764 1 l 1,22,-1
 764 0 l 1,23,-1
 435 0 l 2,24,25
 61 0 61 0 63 289 c 2,26,-1
 63 1065 l 2,27,28
 63 1368 63 1368 432 1366 c 2,29,-1
 812 1366 l 2,0,1
EndSplineSet
EndChar

StartChar: D
Encoding: 68 68 8
Width: 1322
Flags: W
LayerCount: 2
Fore
SplineSet
763 1364 m 2,0,1
 1233 1366 1233 1366 1233 975 c 2,2,-1
 1233 278 l 2,3,4
 1235 0 1235 0 861 0 c 2,5,-1
 65 0 l 1,6,-1
 65 1364 l 1,7,-1
 763 1364 l 2,0,1
312 1156 m 1,8,-1
 312 218 l 1,9,-1
 921 218 l 1,10,11
 980 223 980 223 980 285 c 2,12,-1
 980 1000 l 1,13,14
 975 1156 975 1156 805 1156 c 2,15,-1
 312 1156 l 1,8,-1
EndSplineSet
EndChar

StartChar: E
Encoding: 69 69 9
Width: 1072
Flags: W
LayerCount: 2
Fore
SplineSet
991 1364 m 1,0,-1
 991 1157 l 1,1,-1
 394 1157 l 2,2,3
 324 1158 324 1158 318 1101 c 1,4,-1
 318 821 l 1,5,-1
 818 821 l 1,6,-1
 818 614 l 1,7,-1
 318 614 l 1,8,-1
 318 286 l 2,9,10
 318 213 318 213 378 218 c 1,11,-1
 991 218 l 1,12,-1
 991 0 l 1,13,-1
 238 0 l 1,14,15
 63 8 63 8 64 198 c 2,16,-1
 64 1161 l 2,17,18
 65 1366 65 1366 236 1364 c 2,19,-1
 991 1364 l 1,0,-1
EndSplineSet
EndChar

StartChar: F
Encoding: 70 70 10
Width: 1072
Flags: W
LayerCount: 2
Fore
SplineSet
995 1364 m 1,0,-1
 995 1157 l 1,1,-1
 398 1157 l 2,2,3
 328 1158 328 1158 322 1101 c 1,4,-1
 322 821 l 1,5,-1
 939 821 l 1,6,-1
 939 614 l 1,7,-1
 322 614 l 1,8,-1
 322 0 l 1,9,-1
 70 0 l 1,10,11
 67 8 67 8 68 198 c 2,12,-1
 68 1161 l 2,13,14
 68 1364 68 1364 240 1364 c 2,15,-1
 995 1364 l 1,0,-1
EndSplineSet
EndChar

StartChar: G
Encoding: 71 71 11
Width: 1244
Flags: W
LayerCount: 2
Fore
SplineSet
865 218 m 1,0,1
 928 224 928 224 928 286 c 2,2,-1
 928 492 l 1,3,-1
 673 491 l 1,4,-1
 673 699 l 1,5,-1
 1181 699 l 1,6,-1
 1181 280 l 1,7,8
 1185 3 1185 3 814 0 c 2,9,-1
 432 0 l 2,10,11
 58 0 58 0 60 288 c 2,12,-1
 60 1062 l 2,13,14
 60 1366 60 1366 428 1364 c 2,15,-1
 816 1363 l 2,16,17
 1181 1360 1181 1360 1181 1070 c 2,18,-1
 1181 943 l 1,19,-1
 928 943 l 1,20,-1
 928 1099 l 1,21,22
 920 1155 920 1155 850 1157 c 2,23,-1
 463 1157 l 2,24,25
 319 1157 319 1157 313 1022 c 1,26,-1
 313 349 l 2,27,28
 313 224 313 224 446 218 c 1,29,-1
 865 218 l 1,0,1
EndSplineSet
EndChar

StartChar: H
Encoding: 72 72 12
Width: 1282
Flags: W
LayerCount: 2
Fore
SplineSet
319 614 m 1,0,-1
 319 0 l 1,1,-1
 65 0 l 1,2,-1
 65 1364 l 1,3,-1
 319 1364 l 1,4,-1
 319 821 l 1,5,-1
 959 821 l 1,6,-1
 959 1366 l 1,7,-1
 1219 1366 l 1,8,-1
 1219 1 l 1,9,-1
 972 1 l 1,10,-1
 972 614 l 1,11,-1
 319 614 l 1,0,-1
EndSplineSet
EndChar

StartChar: I
Encoding: 73 73 13
Width: 409
Flags: W
LayerCount: 2
Fore
SplineSet
328 1364 m 1,0,-1
 328 0 l 1,1,-1
 69 0 l 1,2,-1
 69 1364 l 1,3,-1
 328 1364 l 1,0,-1
EndSplineSet
EndChar

StartChar: J
Encoding: 74 74 14
Width: 1000
Flags: W
LayerCount: 2
Fore
SplineSet
543 221 m 2,0,1
 668 224 668 224 666 359 c 2,2,-1
 666 1364 l 1,3,-1
 921 1364 l 1,4,-1
 921 288 l 2,5,6
 921 0 921 0 547 0 c 2,7,-1
 370 0 l 1,8,9
 77 6 77 6 70 286 c 1,10,-1
 70 337 l 1,11,-1
 321 337 l 1,12,13
 318 218 318 218 471 220 c 2,14,-1
 543 221 l 2,0,1
EndSplineSet
EndChar

StartChar: K
Encoding: 75 75 15
Width: 1177
Flags: W
LayerCount: 2
Fore
SplineSet
328 424 m 1,0,-1
 328 0 l 1,1,-1
 73 0 l 1,2,-1
 73 1364 l 1,3,-1
 328 1364 l 1,4,-1
 328 759 l 1,5,-1
 808 1364 l 1,6,-1
 1115 1364 l 1,7,-1
 661 768 l 1,8,-1
 1130 0 l 1,9,-1
 856 0 l 1,10,-1
 472 594 l 1,11,-1
 328 424 l 1,0,-1
EndSplineSet
EndChar

StartChar: L
Encoding: 76 76 16
Width: 1060
Flags: W
LayerCount: 2
Fore
SplineSet
71 0 m 1,0,-1
 70 1364 l 1,1,-1
 325 1364 l 1,2,-1
 326 218 l 1,3,-1
 988 218 l 1,4,-1
 988 0 l 1,5,-1
 71 0 l 1,0,-1
EndSplineSet
EndChar

StartChar: M
Encoding: 77 77 17
Width: 1567
Flags: W
LayerCount: 2
Fore
SplineSet
305 943 m 1,0,-1
 305 0 l 1,1,-1
 75 0 l 1,2,-1
 75 1364 l 1,3,-1
 311 1364 l 1,4,-1
 780 659 l 1,5,-1
 1250 1364 l 1,6,-1
 1485 1364 l 1,7,-1
 1485 0 l 1,8,-1
 1256 0 l 1,9,-1
 1256 943 l 1,10,-1
 780 273 l 1,11,-1
 305 943 l 1,0,-1
EndSplineSet
EndChar

StartChar: N
Encoding: 78 78 18
Width: 1282
Flags: W
LayerCount: 2
Fore
SplineSet
987 2 m 1,0,-1
 308 904 l 1,1,-1
 308 0 l 1,2,-1
 79 0 l 1,3,-1
 79 1364 l 1,4,-1
 294 1364 l 1,5,-1
 987 398 l 1,6,-1
 987 1364 l 1,7,-1
 1217 1364 l 1,8,-1
 1217 0 l 1,9,-1
 987 0 l 1,10,-1
 987 2 l 1,0,-1
EndSplineSet
EndChar

StartChar: O
Encoding: 79 79 19
Width: 1347
Flags: W
LayerCount: 2
Fore
SplineSet
868 218 m 1,0,1
 1011 225 1011 225 1011 361 c 2,2,-1
 1011 1011 l 1,3,4
 1005 1156 1005 1156 852 1157 c 2,5,-1
 484 1157 l 2,6,7
 329 1157 329 1157 323 1011 c 1,8,-1
 323 361 l 2,9,10
 323 226 323 226 466 218 c 1,11,-1
 868 218 l 1,0,1
472 0 m 2,12,13
 66 0 66 0 70 319 c 1,14,-1
 70 1031 l 2,15,16
 70 1366 70 1366 469 1364 c 2,17,-1
 868 1364 l 2,18,19
 1266 1366 1266 1366 1266 1030 c 2,20,-1
 1268 319 l 2,21,22
 1268 0 1268 0 862 0 c 2,23,-1
 472 0 l 2,12,13
EndSplineSet
EndChar

StartChar: P
Encoding: 80 80 20
Width: 1212
Flags: W
LayerCount: 2
Fore
SplineSet
837 821 m 1,0,1
 883 829 883 829 889 875 c 1,2,-1
 889 1090 l 2,3,4
 889 1152 889 1152 829 1158 c 1,5,-1
 330 1158 l 1,6,-1
 330 821 l 1,7,-1
 837 821 l 1,0,1
331 0 m 1,8,-1
 77 0 l 1,9,-1
 77 1363 l 1,10,-1
 80 1364 l 1,11,-1
 899 1364 l 2,12,13
 1144 1364 1144 1364 1142 1179 c 2,14,-1
 1142 795 l 1,15,16
 1136 622 1136 622 894 614 c 1,17,-1
 331 614 l 1,18,-1
 331 0 l 1,8,-1
EndSplineSet
EndChar

StartChar: Q
Encoding: 81 81 21
Width: 1352
Flags: W
LayerCount: 2
Fore
SplineSet
1122 100 m 1,0,1
 1029 0 1029 0 791 0 c 2,2,-1
 481 0 l 2,3,4
 75 0 75 0 79 318 c 1,5,-1
 79 1031 l 2,6,7
 79 1366 79 1366 478 1364 c 2,8,-1
 797 1364 l 2,9,10
 1195 1366 1195 1366 1197 1027 c 2,11,-1
 1197 351 l 1,12,-1
 1198 318 l 1,13,-1
 1390 178 l 1,14,-1
 1255 -3 l 1,15,-1
 1122 100 l 1,0,1
913 268 m 1,16,-1
 729 406 l 1,17,-1
 853 570 l 1,18,-1
 940 505 l 1,19,-1
 940 1011 l 1,20,21
 934 1156 934 1156 781 1157 c 2,22,-1
 493 1157 l 2,23,24
 338 1157 338 1157 332 1011 c 1,25,-1
 332 361 l 2,26,27
 332 226 332 226 475 218 c 1,28,-1
 797 219 l 2,29,30
 878 223 878 223 913 268 c 1,16,-1
EndSplineSet
EndChar

StartChar: R
Encoding: 82 82 22
Width: 1210
Flags: W
LayerCount: 2
Fore
SplineSet
809 822 m 1,0,1
 855 830 855 830 861 876 c 1,2,-1
 861 1090 l 2,3,4
 861 1152 861 1152 801 1158 c 1,5,-1
 332 1158 l 1,6,-1
 332 822 l 1,7,-1
 809 822 l 1,0,1
336 599 m 1,8,-1
 333 1 l 1,9,-1
 79 1 l 1,10,-1
 79 1364 l 1,11,-1
 82 1365 l 1,12,-1
 871 1365 l 2,13,14
 1116 1365 1116 1365 1114 1180 c 2,15,-1
 1114 862 l 1,16,17
 1110 720 1110 720 993 713 c 1,18,19
 1019 716 1019 716 1075 678.5 c 128,-1,20
 1131 641 1131 641 1145 545 c 1,21,-1
 1145 0 l 1,22,-1
 899 0 l 1,23,-1
 902 471 l 1,24,25
 909 601 909 601 773 599 c 2,26,-1
 336 599 l 1,8,-1
EndSplineSet
EndChar

StartChar: S
Encoding: 83 83 23
Width: 1221
Flags: W
LayerCount: 2
Fore
SplineSet
463 613 m 2,0,1
 111 614 111 614 91 889 c 1,2,-1
 91 1062 l 1,3,4
 96 1364 96 1364 460 1364 c 2,5,-1
 748 1364 l 2,6,7
 1119 1364 1119 1364 1122 1072 c 2,8,-1
 1122 1017 l 1,9,-1
 868 1017 l 1,10,-1
 868 1101 l 1,11,12
 861 1157 861 1157 790 1157 c 2,13,-1
 495 1157 l 2,14,15
 350 1157 350 1157 345 1023 c 1,16,-1
 346 951 l 2,17,18
 346 827 346 827 478 821 c 1,19,-1
 785 822 l 1,20,21
 1158 806 1158 806 1156 517 c 2,22,-1
 1156 301 l 2,23,24
 1156 0 1156 0 787 0 c 2,25,-1
 487 1 l 1,26,-1
 487 0 l 1,27,-1
 432 0 l 2,28,29
 51 0 51 0 58 292 c 1,30,-1
 58 423 l 1,31,-1
 312 423 l 1,32,-1
 312 263 l 1,33,34
 319 207 319 207 390 207 c 2,35,-1
 752 206 l 2,36,37
 897 206 897 206 904 340 c 1,38,-1
 904 473 l 2,39,40
 904 597 904 597 777 613 c 1,41,-1
 463 613 l 2,0,1
EndSplineSet
EndChar

StartChar: T
Encoding: 84 84 24
Width: 1131
Flags: W
LayerCount: 2
Fore
SplineSet
684 1157 m 1,0,-1
 684 0 l 1,1,-1
 425 0 l 1,2,-1
 425 1157 l 1,3,-1
 31 1157 l 1,4,-1
 31 1364 l 1,5,-1
 1092 1364 l 1,6,-1
 1092 1157 l 1,7,-1
 684 1157 l 1,0,-1
EndSplineSet
EndChar

StartChar: U
Encoding: 85 85 25
Width: 1227
Flags: W
LayerCount: 2
Fore
SplineSet
491 222 m 1,0,-1
 766 222 l 1,1,2
 896 228 896 228 896 352 c 2,3,-1
 896 1364 l 1,4,-1
 1147 1364 l 1,5,-1
 1147 281 l 2,6,7
 1147 0 1147 0 780 0 c 2,8,-1
 443 0 l 2,9,10
 76 0 76 0 78 281 c 2,11,-1
 78 1364 l 1,12,-1
 326 1364 l 1,13,-1
 326 352 l 2,14,15
 326 228 326 228 456 223 c 1,16,-1
 491 223 l 1,17,-1
 491 222 l 1,0,-1
EndSplineSet
EndChar

StartChar: V
Encoding: 86 86 26
Width: 1244
Flags: W
LayerCount: 2
Fore
SplineSet
621 184 m 1,0,-1
 957 1364 l 1,1,-1
 1198 1364 l 1,2,3
 1201 1357 1201 1357 822 0 c 1,4,-1
 414 -1 l 1,5,6
 34 1357 34 1357 37 1364 c 1,7,-1
 278 1364 l 1,8,-1
 621 184 l 1,0,-1
EndSplineSet
EndChar

StartChar: W
Encoding: 87 87 27
Width: 1895
Flags: W
LayerCount: 2
Fore
SplineSet
948 1364 m 1,0,-1
 1346 299 l 1,1,-1
 1622 1364 l 1,2,-1
 1863 1364 l 1,3,4
 1866 1357 1866 1357 1546 0 c 1,5,-1
 1197 0 l 1,6,-1
 941 672 l 1,7,-1
 702 0 l 1,8,-1
 335 0 l 1,9,10
 15 1357 15 1357 18 1364 c 1,11,-1
 259 1364 l 1,12,-1
 542 299 l 1,13,-1
 948 1364 l 1,0,-1
EndSplineSet
EndChar

StartChar: X
Encoding: 88 88 28
Width: 1309
Flags: W
LayerCount: 2
Fore
SplineSet
654 550 m 1,0,-1
 603 470 l 1,1,-1
 336 0 l 1,2,-1
 31 0 l 1,3,-1
 451 712 l 1,4,-1
 61 1364 l 1,5,-1
 366 1364 l 1,6,-1
 603 955 l 1,7,-1
 654 875 l 1,8,-1
 704 955 l 1,9,-1
 940 1364 l 1,10,-1
 1245 1364 l 1,11,-1
 856 712 l 1,12,-1
 1276 0 l 1,13,-1
 971 0 l 1,14,-1
 704 470 l 1,15,-1
 654 550 l 1,0,-1
EndSplineSet
EndChar

StartChar: Y
Encoding: 89 89 29
Width: 1294
Flags: W
LayerCount: 2
Fore
SplineSet
513 600 m 1,0,-1
 443 712 l 1,1,-1
 53 1364 l 1,2,-1
 358 1364 l 1,3,-1
 595 955 l 1,4,-1
 646 875 l 1,5,-1
 696 955 l 1,6,-1
 932 1364 l 1,7,-1
 1237 1364 l 1,8,-1
 848 712 l 1,9,-1
 773 592 l 1,10,-1
 773 0 l 1,11,-1
 513 0 l 1,12,-1
 513 600 l 1,0,-1
EndSplineSet
EndChar

StartChar: Z
Encoding: 90 90 30
Width: 1198
Flags: W
LayerCount: 2
Fore
SplineSet
1111 1183 m 2,0,1
 1112 1101 1112 1101 1082 1073 c 1,2,-1
 381 220 l 1,3,-1
 1118 220 l 1,4,-1
 1118 0 l 1,5,-1
 223 0 l 2,6,7
 72 -2 72 -2 72 130 c 2,8,-1
 72 190 l 2,9,10
 71 248 71 248 110 299 c 2,11,-1
 821 1157 l 1,12,-1
 146 1156 l 1,13,-1
 146 1364 l 1,14,-1
 948 1364 l 1,15,16
 1111 1357 1111 1357 1111 1224 c 2,17,-1
 1111 1183 l 2,0,1
EndSplineSet
EndChar

StartChar: AE
Encoding: 198 198 31
Width: 1956
Flags: W
LayerCount: 2
Fore
SplineSet
457 1160 m 2,0,1
 387 1161 387 1161 381 1104 c 1,2,-1
 381 822 l 1,3,-1
 960 822 l 1,4,-1
 960 1104 l 1,5,6
 954 1161 954 1161 884 1160 c 2,7,-1
 457 1160 l 2,0,1
961 0 m 1,8,9
 960 213 960 213 960 286 c 2,10,-1
 960 608 l 1,11,-1
 381 608 l 1,12,-1
 381 286 l 2,13,14
 381 213 381 213 380 0 c 1,15,-1
 129 0 l 1,16,17
 126 7 126 7 127 198 c 2,18,-1
 127 1114 l 2,19,20
 128 1369 128 1369 349 1367 c 2,21,-1
 992 1367 l 2,22,23
 1034 1367 1034 1367 1069 1358 c 1,24,25
 1097 1367 1097 1367 1134 1367 c 2,26,-1
 1889 1367 l 1,27,-1
 1889 1160 l 1,28,-1
 1292 1160 l 2,29,30
 1222 1161 1222 1161 1216 1104 c 1,31,-1
 1216 803 l 1,32,-1
 1716 803 l 1,33,-1
 1716 608 l 1,34,-1
 1216 608 l 1,35,-1
 1216 286 l 2,36,37
 1216 213 1216 213 1276 218 c 1,38,-1
 1889 218 l 1,39,-1
 1889 0 l 1,40,-1
 961 0 l 1,8,9
EndSplineSet
EndChar

StartChar: OE
Encoding: 338 338 32
Width: 2019
Flags: W
LayerCount: 2
Fore
SplineSet
889 199 m 1,0,1
 1032 205 1032 205 1032 341 c 2,2,-1
 1032 1011 l 1,3,4
 1026 1156 1026 1156 873 1156 c 2,5,-1
 485 1157 l 2,6,7
 330 1157 330 1157 324 1011 c 1,8,-1
 324 341 l 2,9,10
 324 206 324 206 467 198 c 1,11,-1
 889 199 l 1,0,1
1115 28 m 1,12,13
 1024 -10 1024 -10 883 -10 c 2,14,-1
 473 -9 l 2,15,16
 67 -9 67 -9 71 310 c 1,17,-1
 71 1031 l 2,18,19
 71 1366 71 1366 470 1364 c 2,20,-1
 889 1364 l 2,21,22
 1020 1365 1020 1365 1108 1329 c 1,23,24
 1149 1359 1149 1359 1215 1358 c 2,25,-1
 1970 1358 l 1,26,-1
 1970 1151 l 1,27,-1
 1373 1151 l 2,28,29
 1303 1152 1303 1152 1297 1095 c 1,30,-1
 1297 803 l 1,31,-1
 1797 803 l 1,32,-1
 1797 608 l 1,33,-1
 1297 608 l 1,34,-1
 1297 286 l 2,35,36
 1297 213 1297 213 1357 218 c 1,37,-1
 1970 218 l 1,38,-1
 1970 0 l 1,39,-1
 1217 0 l 2,40,41
 1155 3 1155 3 1115 28 c 1,12,13
EndSplineSet
EndChar

StartChar: Oslash
Encoding: 216 216 33
Width: 1344
Flags: W
LayerCount: 2
Fore
SplineSet
1003 1081 m 1,0,1
 969 1156 969 1156 859 1156 c 2,2,-1
 471 1157 l 2,3,4
 316 1157 316 1157 310 1011 c 1,5,-1
 310 506 l 1,6,-1
 1003 1081 l 1,0,1
1018 843 m 1,7,-1
 324 268 l 1,8,9
 356 203 356 203 453 198 c 1,10,-1
 875 199 l 1,11,12
 1018 205 1018 205 1018 341 c 2,13,-1
 1018 843 l 1,7,-1
1204 1251 m 1,14,-1
 1340 1365 l 1,15,-1
 1339 1113 l 1,16,-1
 1272 1057 l 1,17,18
 1273 1044 1273 1044 1273 1030 c 2,19,-1
 1275 310 l 2,20,21
 1275 -10 1275 -10 869 -10 c 2,22,-1
 459 -9 l 2,23,24
 222 -9 222 -9 125 100 c 1,25,-1
 5 -1 l 1,26,-1
 5 249 l 1,27,-1
 57 293 l 1,28,-1
 57 1031 l 2,29,30
 57 1366 57 1366 456 1364 c 2,31,-1
 875 1364 l 2,32,33
 1108 1365 1108 1365 1204 1251 c 1,14,-1
EndSplineSet
EndChar

StartChar: Ccedilla
Encoding: 199 199 34
Width: 1266
Flags: W
LayerCount: 2
Fore
SplineSet
697 -102 m 1,0,-1
 798 -218 l 1,1,-1
 568 -382 l 1,2,-1
 495 -304 l 1,3,-1
 697 -102 l 1,0,-1
763 1364 m 1,4,-1
 763 1365 l 1,5,-1
 818 1365 l 2,6,7
 1192 1367 1192 1367 1192 1073 c 2,8,-1
 1192 942 l 1,9,-1
 938 942 l 1,10,-1
 938 1102 l 1,11,12
 931 1158 931 1158 860 1158 c 2,13,-1
 475 1158 l 2,14,15
 330 1158 330 1158 325 1024 c 1,16,-1
 325 339 l 2,17,18
 325 215 325 215 457 209 c 1,19,-1
 876 209 l 1,20,21
 938 215 938 215 938 277 c 2,22,-1
 938 427 l 1,23,-1
 1192 427 l 1,24,-1
 1192 281 l 2,25,26
 1195 1 1195 1 816 1 c 2,27,-1
 772 1 l 1,28,-1
 772 0 l 1,29,-1
 443 0 l 2,30,31
 69 0 69 0 71 289 c 2,32,-1
 71 1063 l 2,33,34
 71 1366 71 1366 440 1364 c 2,35,-1
 763 1364 l 1,4,-1
EndSplineSet
EndChar

StartChar: a
Encoding: 97 97 35
Width: 993
Flags: W
LayerCount: 2
Fore
SplineSet
336 188 m 1,1,-1
 571 188 l 2,2,3
 706 190 706 190 707 333 c 2,4,-1
 707 404 l 1,5,-1
 338 404 l 2,6,7
 253 402 253 402 249 329 c 1,8,-1
 249 270 l 1,9,0
 255 194 255 194 336 188 c 1,1,-1
101 742 m 2,10,11
 102 968 102 968 340 969 c 2,12,-1
 705 969 l 1,13,14
 910 957 910 957 923 709 c 1,15,-1
 923 0 l 1,16,-1
 705 0 l 1,17,-1
 704 106 l 1,18,19
 636 0 636 0 459 -1 c 2,20,-1
 299 0 l 1,21,22
 68 10 68 10 48 198 c 1,23,-1
 48 353 l 1,24,25
 55 572 55 572 279 582 c 1,26,-1
 571 582 l 2,27,28
 685 580 685 580 706 584 c 1,29,-1
 706 667 l 1,30,31
 712 778 712 778 605 774 c 1,32,-1
 380 774 l 2,33,34
 300 777 300 777 301 703 c 2,35,-1
 301 669 l 1,36,-1
 101 669 l 1,37,-1
 101 742 l 2,10,11
EndSplineSet
EndChar

StartChar: b
Encoding: 98 98 36
Width: 1069
Flags: W
LayerCount: 2
Fore
SplineSet
305 106 m 1,1,-1
 305 0 l 1,2,-1
 194 0 l 1,3,-1
 82 0 l 1,4,-1
 82 1364 l 1,5,-1
 307 1364 l 1,6,-1
 307 907 l 1,7,8
 332 965 332 965 428 969 c 1,9,-1
 787 969 l 1,10,11
 974 961 974 961 974 774 c 2,12,-1
 974 184 l 1,13,14
 968 -3 968 -3 783 0 c 2,15,-1
 505 0 l 1,16,0
 319 6 319 6 305 106 c 1,1,-1
770 292 m 1,17,-1
 770 692 l 1,18,19
 766 765 766 765 678 766 c 2,20,-1
 428 766 l 2,21,22
 314 769 314 769 307 687 c 1,23,-1
 307 355 l 2,24,25
 308 212 308 212 443 210 c 2,26,-1
 683 210 l 1,27,28
 764 216 764 216 770 292 c 1,17,-1
EndSplineSet
EndChar

StartChar: c
Encoding: 99 99 37
Width: 1012
Flags: W
LayerCount: 2
Fore
SplineSet
644 969 m 1,0,1
 927 963 927 963 927 697 c 2,2,-1
 927 671 l 1,3,-1
 732 671 l 1,4,-1
 732 700 l 2,5,6
 730 772 730 772 640 772 c 2,7,-1
 365 772 l 2,8,9
 276 772 276 772 272 679 c 1,10,-1
 272 288 l 2,11,12
 272 195 272 195 365 195 c 2,13,-1
 658 195 l 2,14,15
 761 193 761 193 762 272 c 1,16,-1
 950 272 l 1,17,-1
 950 185 l 2,18,19
 950 2 950 2 761 0 c 2,20,-1
 388 0 l 1,21,22
 77 4 77 4 77 296 c 2,23,-1
 77 677 l 2,24,25
 77 963 77 963 390 969 c 1,26,-1
 644 969 l 1,0,1
EndSplineSet
EndChar

StartChar: d
Encoding: 100 100 38
Width: 1048
Flags: W
LayerCount: 2
Fore
SplineSet
541 0 m 1,0,-1
 263 0 l 2,1,2
 78 -3 78 -3 72 184 c 1,3,-1
 72 774 l 2,4,5
 72 961 72 961 259 969 c 1,6,-1
 618 969 l 1,7,8
 714 965 714 965 739 907 c 1,9,-1
 739 1364 l 1,10,-1
 964 1364 l 1,11,-1
 964 0 l 1,12,-1
 852 0 l 1,13,-1
 741 0 l 1,14,-1
 741 106 l 1,15,16
 727 6 727 6 541 0 c 1,0,-1
363 210 m 1,18,-1
 603 210 l 2,19,20
 738 212 738 212 739 355 c 2,21,-1
 739 687 l 1,22,23
 732 769 732 769 617 767 c 2,24,-1
 365 767 l 2,25,26
 280 765 280 765 276 692 c 1,27,-1
 276 292 l 1,28,17
 282 216 282 216 363 210 c 1,18,-1
EndSplineSet
EndChar

StartChar: e
Encoding: 101 101 39
Width: 1055
Flags: W
LayerCount: 2
Fore
SplineSet
760 573 m 1,0,-1
 761 679 l 1,1,2
 769 771 769 771 673 770 c 2,3,-1
 366 770 l 2,4,5
 276 771 276 771 274 677 c 2,6,-1
 273 573 l 1,7,-1
 760 573 l 1,0,-1
377 0 m 1,8,9
 78 6 78 6 78 298 c 2,10,-1
 79 673 l 2,11,12
 80 968 80 968 401 968 c 2,13,-1
 663 968 l 2,14,15
 955 970 955 970 959 681 c 1,16,-1
 958 405 l 1,17,-1
 272 405 l 1,18,-1
 272 284 l 2,19,20
 272 190 272 190 419 197 c 1,21,-1
 702 197 l 2,22,23
 767 195 767 195 763 266 c 1,24,-1
 763 273 l 1,25,-1
 958 273 l 1,26,-1
 958 197 l 1,27,-1
 959 197 l 1,28,-1
 958 196 l 1,29,-1
 958 185 l 2,30,31
 958 2 958 2 769 0 c 2,32,-1
 377 0 l 1,8,9
EndSplineSet
EndChar

StartChar: f
Encoding: 102 102 40
Width: 693
Flags: W
LayerCount: 2
Fore
SplineSet
165 968 m 1,0,-1
 165 1132 l 1,1,2
 158 1358 158 1358 393 1363 c 2,3,-1
 560 1364 l 1,4,-1
 560 1165 l 1,5,-1
 492 1165 l 1,6,7
 392 1160 392 1160 394 1078 c 2,8,-1
 394 968 l 1,9,-1
 637 968 l 1,10,-1
 637 772 l 1,11,-1
 394 772 l 1,12,-1
 394 0 l 1,13,-1
 165 0 l 1,14,-1
 165 772 l 1,15,-1
 33 772 l 1,16,-1
 33 968 l 1,17,-1
 165 968 l 1,0,-1
EndSplineSet
EndChar

StartChar: g
Encoding: 103 103 41
Width: 1060
Flags: W
LayerCount: 2
Fore
SplineSet
287 289 m 2,0,1
 285 197 285 197 380 197 c 2,2,-1
 575 197 l 2,3,4
 740 197 740 197 734 345 c 1,5,-1
 734 628 l 2,6,7
 732 784 732 784 571 772 c 1,8,-1
 380 772 l 2,9,10
 287 772 287 772 287 680 c 2,11,-1
 287 289 l 2,0,1
970 -99 m 2,12,13
 970 -419 970 -419 686 -426 c 1,14,-1
 328 -427 l 2,15,16
 76 -426 76 -426 78 -228 c 2,17,-1
 78 -142 l 1,18,-1
 269 -142 l 1,19,20
 263 -241 263 -241 356 -230 c 1,21,-1
 555 -230 l 2,22,23
 731 -231 731 -231 732 -55 c 2,24,-1
 732 91 l 1,25,26
 705 9 705 9 559 0 c 1,27,-1
 271 0 l 1,28,29
 82 6 82 6 82 189 c 2,30,-1
 82 780 l 2,31,32
 82 967 82 967 271 969 c 2,33,-1
 591 969 l 1,34,35
 713 956 713 956 735 870 c 1,36,-1
 735 968 l 1,37,-1
 970 968 l 1,38,-1
 970 -99 l 2,12,13
EndSplineSet
EndChar

StartChar: h
Encoding: 104 104 42
Width: 1002
Flags: W
LayerCount: 2
Fore
SplineSet
302 0 m 1,0,-1
 302 0 l 1,1,-1
 302 0 l 1,2,-1
 75 0 l 1,3,-1
 76 1364 l 1,4,-1
 303 1364 l 1,5,-1
 303 887 l 1,6,7
 366 969 366 969 458 969 c 2,8,-1
 579 969 l 2,9,10
 916 966 916 966 916 626 c 2,11,-1
 916 0 l 1,12,-1
 688 0 l 1,13,-1
 688 631 l 2,14,15
 688 764 688 764 536 772 c 1,16,-1
 485 772 l 1,17,18
 307 761 307 761 302 631 c 1,19,-1
 302 0 l 1,0,-1
EndSplineSet
EndChar

StartChar: i
Encoding: 105 105 43
Width: 454
Flags: W
LayerCount: 2
Fore
SplineSet
343 1364 m 1,0,-1
 343 1168 l 1,1,-1
 110 1168 l 1,2,-1
 110 1364 l 1,3,-1
 343 1364 l 1,0,-1
344 969 m 1,4,-1
 344 0 l 1,5,-1
 110 0 l 1,6,-1
 110 969 l 1,7,-1
 344 969 l 1,4,-1
EndSplineSet
EndChar

StartChar: j
Encoding: 106 106 44
Width: 433
Flags: W
LayerCount: 2
Fore
SplineSet
110 -104 m 2,0,-1
 110 -80 l 1,1,-1
 110 969 l 1,2,-1
 343 969 l 1,3,-1
 343 -76 l 1,4,-1
 343 -138 l 1,5,6
 332 -425 332 -425 38 -427 c 1,7,-1
 -48 -425 l 1,8,-1
 -48 -229 l 1,9,10
 112 -233 112 -233 110 -104 c 2,0,-1
344 1364 m 1,11,-1
 344 1168 l 1,12,-1
 111 1168 l 1,13,-1
 111 1364 l 1,14,-1
 344 1364 l 1,11,-1
EndSplineSet
EndChar

StartChar: k
Encoding: 107 107 45
Width: 981
Flags: W
LayerCount: 2
Fore
SplineSet
305 450 m 1,0,-1
 305 0 l 1,1,-1
 71 0 l 1,2,-1
 70 1364 l 1,3,-1
 304 1364 l 1,4,-1
 305 611 l 1,5,-1
 608 968 l 1,6,-1
 884 968 l 1,7,-1
 537 534 l 1,8,-1
 951 0 l 1,9,-1
 676 0 l 1,10,-1
 305 450 l 1,0,-1
EndSplineSet
EndChar

StartChar: l
Encoding: 108 108 46
Width: 564
Flags: W
LayerCount: 2
Fore
SplineSet
112 1364 m 1,0,-1
 341 1364 l 1,1,-1
 341 294 l 1,2,3
 348 208 348 208 442 205 c 2,4,-1
 476 205 l 1,5,-1
 476 0 l 1,6,-1
 298 0 l 1,7,8
 113 6 113 6 113 185 c 2,9,-1
 112 1364 l 1,0,-1
EndSplineSet
EndChar

StartChar: m
Encoding: 109 109 47
Width: 1500
Flags: W
LayerCount: 2
Fore
SplineSet
302 589 m 1,0,-1
 301 0 l 1,1,-1
 69 0 l 1,2,-1
 69 969 l 1,3,-1
 301 969 l 1,4,-1
 301 872 l 1,5,6
 342 968 342 968 465 969 c 2,7,-1
 608 969 l 1,8,9
 721 962 721 962 766 865 c 1,10,11
 797 964 797 964 928 969 c 1,12,-1
 1195 969 l 1,13,14
 1429 961 1429 961 1427 683 c 2,15,-1
 1426 0 l 1,16,-1
 1194 0 l 1,17,-1
 1194 677 l 1,18,19
 1202 769 1202 769 1098 771 c 2,20,-1
 963 771 l 1,21,22
 870 767 870 767 867 675 c 2,23,-1
 867 0 l 1,24,-1
 634 0 l 1,25,-1
 634 675 l 1,26,27
 639 775 639 775 542 772 c 2,28,-1
 441 772 l 1,29,30
 297 766 297 766 302 589 c 1,0,-1
EndSplineSet
EndChar

StartChar: n
Encoding: 110 110 48
Width: 1007
Flags: W
LayerCount: 2
Fore
SplineSet
300 605 m 1,0,-1
 302 0 l 1,1,-1
 69 0 l 1,2,-1
 67 969 l 1,3,-1
 300 969 l 1,4,-1
 300 872 l 1,5,6
 348 969 348 969 459 969 c 2,7,-1
 658 969 l 1,8,9
 929 964 929 964 926 686 c 2,10,-1
 928 0 l 1,11,-1
 693 0 l 1,12,-1
 690 630 l 2,13,14
 692 765 692 765 588 773 c 1,15,-1
 428 773 l 1,16,17
 293 768 293 768 300 605 c 1,0,-1
EndSplineSet
EndChar

StartChar: o
Encoding: 111 111 49
Width: 1049
Flags: W
LayerCount: 2
Fore
SplineSet
609 201 m 2,0,1
 774 199 774 199 774 349 c 2,2,-1
 774 624 l 2,3,4
 773 776 773 776 605 772 c 1,5,-1
 415 772 l 2,6,7
 254 775 254 775 256 624 c 2,8,-1
 257 349 l 2,9,10
 257 202 257 202 416 201 c 2,11,-1
 609 201 l 2,0,1
637 969 m 2,12,13
 969 968 969 968 969 653 c 2,14,-1
 969 300 l 2,15,16
 969 5 969 5 665 0 c 1,17,-1
 368 0 l 1,18,19
 63 7 63 7 63 299 c 2,20,-1
 64 653 l 2,21,22
 66 968 66 968 337 969 c 2,23,-1
 637 969 l 2,12,13
EndSplineSet
EndChar

StartChar: p
Encoding: 112 112 50
Width: 1071
Flags: W
LayerCount: 2
Fore
SplineSet
301 148 m 1,1,-1
 301 -426 l 1,2,-1
 78 -426 l 1,3,-1
 77 969 l 1,4,-1
 302 969 l 1,5,-1
 302 862 l 1,6,7
 311 967 311 967 484 969 c 2,8,-1
 747 969 l 1,9,10
 984 964 984 964 982 728 c 2,11,-1
 983 184 l 1,12,13
 979 -2 979 -2 794 0 c 2,14,-1
 523 0 l 2,15,0
 302 2 302 2 301 148 c 1,1,-1
304 358 m 2,16,17
 306 215 306 215 458 211 c 1,18,-1
 681 211 l 2,19,20
 766 210 766 210 766 301 c 2,21,-1
 766 673 l 1,22,23
 753 763 753 763 656 772 c 1,24,-1
 397 772 l 1,25,26
 306 766 306 766 304 676 c 2,27,-1
 304 358 l 2,16,17
EndSplineSet
EndChar

StartChar: q
Encoding: 113 113 51
Width: 1048
Flags: W
LayerCount: 2
Fore
SplineSet
522 0 m 2,0,-1
 251 0 l 2,1,2
 66 -3 66 -3 62 184 c 1,3,-1
 62 728 l 2,4,5
 60 963 60 963 298 969 c 1,6,-1
 561 969 l 2,7,8
 733 967 733 967 742 862 c 1,9,-1
 742 969 l 1,10,-1
 967 969 l 1,11,-1
 967 -427 l 1,12,-1
 744 -427 l 1,13,-1
 744 148 l 1,14,15
 743 2 743 2 522 0 c 2,0,-1
740 676 m 2,16,17
 738 765 738 765 648 772 c 1,18,-1
 388 772 l 1,19,20
 291 762 291 762 278 673 c 1,21,-1
 279 301 l 2,22,23
 279 210 279 210 364 211 c 2,24,-1
 587 211 l 1,25,26
 739 215 739 215 741 358 c 2,27,-1
 740 676 l 2,16,17
EndSplineSet
EndChar

StartChar: r
Encoding: 114 114 52
Width: 890
Flags: W
LayerCount: 2
Fore
SplineSet
314 969 m 1,0,-1
 314 890 l 1,1,2
 335 969 335 969 463 970 c 2,3,-1
 605 970 l 1,4,5
 813 964 813 964 814 693 c 2,6,-1
 814 670 l 1,7,-1
 622 669 l 1,8,-1
 620 682 l 1,9,10
 621 774 621 774 521 773 c 2,11,-1
 454 773 l 2,12,13
 309 773 309 773 314 638 c 1,14,-1
 314 0 l 1,15,-1
 82 0 l 1,16,-1
 82 969 l 1,17,-1
 314 969 l 1,0,-1
EndSplineSet
EndChar

StartChar: s
Encoding: 115 115 53
Width: 974
Flags: W
LayerCount: 2
Fore
SplineSet
340 968 m 1,0,-1
 270 969 l 1,1,-1
 650 969 l 2,2,3
 870 966 870 966 870 783 c 2,4,-1
 870 675 l 1,5,-1
 654 674 l 1,6,-1
 654 728 l 1,7,8
 649 773 649 773 597 772 c 2,9,-1
 373 772 l 2,10,11
 294 769 294 769 295 694 c 2,12,-1
 295 653 l 2,13,14
 292 600 292 600 368 590 c 1,15,-1
 710 590 l 1,16,17
 914 580 914 580 916 394 c 2,18,-1
 915 207 l 1,19,20
 909 0 909 0 603 0 c 2,21,-1
 234 0 l 1,22,23
 44 7 44 7 44 194 c 2,24,-1
 43 273 l 1,25,-1
 259 273 l 1,26,-1
 259 244 l 2,27,28
 256 200 256 200 309 200 c 2,29,-1
 602 200 l 2,30,31
 686 200 686 200 686 257 c 2,32,-1
 686 342 l 1,33,34
 690 392 690 392 634 407 c 1,35,-1
 335 407 l 1,36,37
 95 417 95 417 74 627 c 1,38,-1
 74 747 l 1,39,40
 78 972 78 972 340 968 c 1,0,-1
EndSplineSet
EndChar

StartChar: t
Encoding: 116 116 54
Width: 722
Flags: W
LayerCount: 2
Fore
SplineSet
114 971 m 1,0,-1
 115 1364 l 1,1,-1
 346 1364 l 1,2,-1
 346 969 l 1,3,-1
 644 969 l 1,4,-1
 644 772 l 1,5,-1
 344 772 l 1,6,-1
 345 276 l 1,7,8
 341 201 341 201 425 198 c 2,9,-1
 645 198 l 1,10,-1
 645 -1 l 1,11,-1
 277 -2 l 1,12,13
 121 2 121 2 114 165 c 1,14,-1
 113 772 l 1,15,-1
 29 772 l 1,16,-1
 29 971 l 1,17,-1
 114 971 l 1,0,-1
EndSplineSet
EndChar

StartChar: u
Encoding: 117 117 55
Width: 1028
Flags: W
LayerCount: 2
Fore
SplineSet
957 299 m 2,0,-1
 957 1 l 1,1,-1
 718 1 l 1,2,-1
 718 78 l 1,3,4
 632 -1 632 -1 553 -2 c 2,5,-1
 395 -1 l 1,6,7
 98 5 98 5 98 303 c 2,8,-1
 98 969 l 1,9,-1
 331 969 l 1,10,-1
 332 317 l 2,11,12
 332 200 332 200 454 200 c 2,13,-1
 589 200 l 2,14,15
 717 200 717 200 717 317 c 2,16,-1
 717 969 l 1,17,-1
 957 969 l 1,18,-1
 959 301 l 2,19,20
 958 300 958 300 957 299 c 2,0,-1
EndSplineSet
EndChar

StartChar: v
Encoding: 118 118 56
Width: 971
Flags: W
LayerCount: 2
Fore
SplineSet
259 969 m 1,0,-1
 488 254 l 1,1,-1
 710 969 l 1,2,-1
 957 969 l 1,3,4
 865 629 865 629 639 0 c 1,5,-1
 331 0 l 1,6,7
 105 629 105 629 10 969 c 1,8,-1
 259 969 l 1,0,-1
EndSplineSet
EndChar

StartChar: w
Encoding: 119 119 57
Width: 1371
Flags: W
LayerCount: 2
Fore
SplineSet
922 200 m 1,0,-1
 1109 969 l 1,1,-1
 1335 969 l 1,2,-1
 1099 0 l 1,3,-1
 791 0 l 1,4,-1
 682 362 l 1,5,-1
 567 0 l 1,6,-1
 279 0 l 1,7,-1
 22 969 l 1,8,-1
 237 969 l 1,9,-1
 436 200 l 1,10,-1
 683 902 l 1,11,-1
 922 200 l 1,0,-1
EndSplineSet
EndChar

StartChar: x
Encoding: 120 120 58
Width: 980
Flags: W
LayerCount: 2
Fore
SplineSet
485 670 m 1,0,-1
 679 969 l 1,1,-1
 950 969 l 1,2,-1
 642 493 l 1,3,-1
 950 0 l 1,4,-1
 668 0 l 1,5,-1
 487 327 l 1,6,-1
 300 0 l 1,7,-1
 21 0 l 1,8,-1
 328 493 l 1,9,-1
 20 969 l 1,10,-1
 291 969 l 1,11,-1
 485 670 l 1,0,-1
EndSplineSet
EndChar

StartChar: y
Encoding: 121 121 59
Width: 977
Flags: W
LayerCount: 2
Fore
SplineSet
365 -83 m 1,0,-1
 334 0 l 1,1,2
 108 629 108 629 14 969 c 1,3,-1
 263 969 l 1,4,-1
 491 254 l 1,5,-1
 714 969 l 1,6,-1
 960 969 l 1,7,8
 868 629 868 629 641 1 c 2,9,-1
 591 -139 l 1,10,11
 517 -412 517 -412 237 -427 c 1,12,-1
 151 -425 l 1,13,-1
 151 -229 l 1,14,15
 305 -229 305 -229 358 -105 c 1,16,-1
 365 -83 l 1,0,-1
EndSplineSet
EndChar

StartChar: z
Encoding: 122 122 60
Width: 902
Flags: W
LayerCount: 2
Fore
SplineSet
841 879 m 1,1,-1
 841 772 l 1,2,-1
 389 200 l 1,3,-1
 838 200 l 1,4,-1
 839 0 l 1,5,-1
 176 0 l 2,6,7
 95 -1 95 -1 83 84 c 1,8,-1
 82 199 l 1,9,-1
 529 772 l 1,10,-1
 138 772 l 1,11,-1
 139 969 l 1,12,-1
 743 969 l 1,13,0
 834 963 834 963 841 879 c 1,1,-1
EndSplineSet
EndChar

StartChar: ae
Encoding: 230 230 61
Width: 1672
Flags: W
LayerCount: 2
Fore
SplineSet
368 176 m 1,1,-1
 603 176 l 1,2,3
 738 184 738 184 739 301 c 2,4,-1
 739 384 l 1,5,-1
 370 384 l 1,6,7
 287 390 287 390 281 309 c 1,8,-1
 281 258 l 1,9,0
 287 188 287 188 368 176 c 1,1,-1
1447 602 m 1,10,-1
 1447 678 l 1,11,12
 1455 770 1455 770 1359 769 c 2,13,-1
 1052 769 l 2,14,15
 962 770 962 770 960 676 c 2,16,-1
 960 603 l 1,17,-1
 1447 602 l 1,10,-1
997 0 m 1,18,-1
 955 0 l 2,19,20
 736 1 736 1 736 104 c 1,21,22
 730 11 730 11 601 0 c 1,23,-1
 333 0 l 1,24,25
 100 10 100 10 80 198 c 1,26,-1
 79 327 l 1,27,28
 87 568 87 568 311 572 c 1,29,-1
 739 571 l 1,30,-1
 739 669 l 2,31,32
 742 775 742 775 638 772 c 2,33,-1
 413 772 l 1,34,35
 329 780 329 780 334 705 c 1,36,-1
 333 671 l 1,37,-1
 132 671 l 1,38,-1
 133 795 l 2,39,40
 134 962 134 962 316 969 c 1,41,-1
 737 969 l 1,42,43
 804 965 804 965 850 936 c 1,44,45
 901 964 901 964 981 967 c 2,46,-1
 1433 967 l 2,47,48
 1641 969 1641 969 1645 771 c 1,49,-1
 1645 434 l 1,50,-1
 959 434 l 1,51,-1
 959 284 l 2,52,53
 959 190 959 190 1106 197 c 1,54,-1
 1389 197 l 2,55,56
 1454 195 1454 195 1450 266 c 1,57,-1
 1450 273 l 1,58,-1
 1645 273 l 1,59,-1
 1645 197 l 1,60,-1
 1646 197 l 1,61,-1
 1645 196 l 1,62,-1
 1645 185 l 2,63,64
 1645 2 1645 2 1456 0 c 2,65,-1
 1427 0 l 1,66,-1
 997 0 l 1,18,-1
EndSplineSet
EndChar

StartChar: oe
Encoding: 339 339 62
Width: 1692
Flags: W
LayerCount: 2
Fore
SplineSet
653 197 m 2,0,1
 788 195 788 195 788 315 c 2,2,-1
 789 650 l 2,3,4
 788 770 788 770 650 768 c 2,5,-1
 400 768 l 2,6,7
 269 769 269 769 271 650 c 2,8,-1
 271 315 l 2,9,10
 271 198 271 198 400 197 c 2,11,-1
 653 197 l 2,0,1
1490 602 m 1,12,-1
 1490 678 l 1,13,14
 1498 770 1498 770 1402 769 c 2,15,-1
 1095 769 l 2,16,17
 1005 770 1005 770 1003 676 c 2,18,-1
 1003 603 l 1,19,-1
 1490 602 l 1,12,-1
872 38 m 1,20,21
 806 2 806 2 699 0 c 2,22,-1
 332 0 l 1,23,24
 77 7 77 7 77 249 c 2,25,-1
 78 701 l 2,26,27
 80 966 80 966 301 967 c 2,28,-1
 701 967 l 2,29,30
 811 967 811 967 878 926 c 1,31,32
 931 964 931 964 1024 967 c 2,33,-1
 1476 967 l 2,34,35
 1684 969 1684 969 1688 771 c 1,36,-1
 1688 434 l 1,37,-1
 1002 434 l 1,38,-1
 1002 284 l 2,39,40
 1002 190 1002 190 1149 197 c 1,41,-1
 1432 197 l 2,42,43
 1497 195 1497 195 1493 266 c 1,44,-1
 1493 273 l 1,45,-1
 1688 273 l 1,46,-1
 1688 197 l 1,47,-1
 1689 197 l 1,48,-1
 1688 196 l 1,49,-1
 1688 185 l 2,50,51
 1688 2 1688 2 1499 0 c 2,52,-1
 1471 0 l 1,53,-1
 1470 -1 l 1,54,-1
 998 1 l 2,55,56
 918 4 918 4 872 38 c 1,20,21
EndSplineSet
EndChar

StartChar: oslash
Encoding: 248 248 63
Width: 1043
Flags: W
LayerCount: 2
Fore
SplineSet
78 228 m 1,0,1
 77 238 77 238 77 249 c 2,2,-1
 78 701 l 2,3,4
 80 966 80 966 301 967 c 2,5,-1
 701 967 l 2,6,7
 814 967 814 967 882 924 c 1,8,-1
 1010 1034 l 1,9,-1
 1009 856 l 1,10,-1
 965 818 l 1,11,12
 983 768 983 768 983 701 c 2,13,-1
 983 250 l 2,14,15
 983 5 983 5 699 0 c 1,16,-1
 332 0 l 1,17,18
 181 4 181 4 119 91 c 1,19,-1
 0 -12 l 1,20,-1
 -2 159 l 1,21,-1
 78 228 l 1,0,1
788 666 m 1,22,-1
 292 239 l 1,23,24
 323 198 323 198 400 197 c 2,25,-1
 653 197 l 2,26,27
 788 195 788 195 788 315 c 2,28,-1
 789 650 l 2,29,30
 789 658 789 658 788 666 c 1,22,-1
271 395 m 1,31,-1
 698 764 l 1,32,33
 677 768 677 768 650 768 c 2,34,-1
 400 768 l 2,35,36
 269 769 269 769 271 650 c 2,37,-1
 271 395 l 1,31,-1
EndSplineSet
EndChar

StartChar: germandbls
Encoding: 223 223 64
Width: 1105
Flags: W
LayerCount: 2
Fore
SplineSet
734 1378 m 2,0,1
 971 1380 971 1380 971 1179 c 2,2,-1
 971 903 l 1,3,4
 977 770 977 770 854 768 c 1,5,6
 987 768 987 768 993 659 c 1,7,-1
 993 186 l 2,8,9
 994 0 994 0 746 0 c 2,10,-1
 588 0 l 1,11,-1
 588 207 l 1,12,-1
 676 207 l 1,13,14
 736 213 736 213 736 276 c 2,15,-1
 736 610 l 1,16,17
 731 657 731 657 684 665 c 1,18,-1
 588 665 l 1,19,-1
 588 874 l 1,20,-1
 654 874 l 1,21,22
 717 880 717 880 717 942 c 2,23,-1
 717 1114 l 1,24,25
 709 1171 709 1171 639 1171 c 2,26,-1
 523 1171 l 1,27,-1
 523 1173 l 1,28,29
 379 1173 379 1173 373 1038 c 1,30,-1
 371 0 l 1,31,-1
 115 0 l 1,32,-1
 119 1079 l 2,33,34
 119 1382 119 1382 478 1378 c 1,35,-1
 734 1378 l 2,0,1
EndSplineSet
EndChar

StartChar: dotlessi
Encoding: 305 305 65
Width: 454
Flags: W
LayerCount: 2
Fore
SplineSet
382 967 m 1,0,-1
 382 0 l 1,1,-1
 113 0 l 1,2,-1
 113 967 l 1,3,-1
 382 967 l 1,0,-1
EndSplineSet
EndChar

StartChar: fi
Encoding: 61441 61441 66
Width: 1066
Flags: W
LayerCount: 2
Fore
SplineSet
953 1365 m 1,0,-1
 953 1174 l 1,1,-1
 724 1174 l 1,2,-1
 724 1365 l 1,3,-1
 953 1365 l 1,0,-1
155 973 m 1,4,-1
 155 1185 l 1,5,6
 148 1370 148 1370 364 1376 c 1,7,-1
 550 1376 l 1,8,-1
 550 1178 l 1,9,-1
 482 1177 l 1,10,11
 376 1185 376 1185 384 1059 c 1,12,-1
 384 973 l 1,13,-1
 627 973 l 1,14,-1
 627 777 l 1,15,-1
 384 778 l 1,16,-1
 384 0 l 1,17,-1
 155 0 l 1,18,-1
 155 778 l 1,19,-1
 23 777 l 1,20,-1
 23 973 l 1,21,-1
 155 973 l 1,4,-1
955 970 m 1,22,-1
 955 2 l 1,23,-1
 720 2 l 1,24,-1
 720 970 l 1,25,-1
 955 970 l 1,22,-1
EndSplineSet
EndChar

StartChar: fl
Encoding: 61442 61442 67
Width: 1066
Flags: W
LayerCount: 2
Fore
SplineSet
155 969 m 1,0,-1
 155 1173 l 1,1,2
 148 1358 148 1358 364 1364 c 1,3,-1
 550 1364 l 1,4,-1
 550 1166 l 1,5,-1
 482 1165 l 1,6,7
 376 1173 376 1173 384 1047 c 1,8,-1
 384 969 l 1,9,-1
 627 969 l 1,10,-1
 627 773 l 1,11,-1
 384 774 l 1,12,-1
 384 0 l 1,13,-1
 155 0 l 1,14,-1
 155 774 l 1,15,-1
 23 773 l 1,16,-1
 23 969 l 1,17,-1
 155 969 l 1,0,-1
722 1368 m 1,18,-1
 950 1368 l 1,19,-1
 951 294 l 2,20,21
 953 203 953 203 1062 203 c 1,22,-1
 1086 205 l 1,23,-1
 1085 2 l 1,24,-1
 908 0 l 1,25,26
 723 6 723 6 723 185 c 2,27,-1
 722 1368 l 1,18,-1
EndSplineSet
EndChar

StartChar: ccedilla
Encoding: 231 231 68
Width: 1005
Flags: W
LayerCount: 2
Fore
SplineSet
561 -101 m 1,0,-1
 649 -207 l 1,1,-1
 443 -347 l 1,2,-1
 380 -277 l 1,3,-1
 561 -101 l 1,0,-1
738 969 m 1,4,5
 927 963 927 963 927 780 c 2,6,-1
 927 671 l 1,7,-1
 732 671 l 1,8,-1
 732 700 l 2,9,10
 730 772 730 772 640 772 c 2,11,-1
 365 772 l 2,12,13
 276 772 276 772 272 679 c 1,14,-1
 272 288 l 2,15,16
 272 195 272 195 365 195 c 2,17,-1
 658 195 l 2,18,19
 761 193 761 193 755 286 c 1,20,-1
 755 293 l 1,21,-1
 950 293 l 1,22,-1
 950 185 l 2,23,24
 950 2 950 2 761 0 c 2,25,-1
 266 0 l 1,26,27
 77 4 77 4 77 187 c 2,28,-1
 77 780 l 2,29,30
 77 963 77 963 266 969 c 1,31,-1
 738 969 l 1,4,5
EndSplineSet
EndChar

StartChar: one
Encoding: 49 49 69
Width: 1285
Flags: W
LayerCount: 2
Fore
SplineSet
600.5 1364 m 1,0,-1
 600.5 1365 l 1,1,-1
 786.5 1365 l 2,2,3
 851.5 1364 851.5 1364 851.5 1288 c 2,4,-1
 851.5 0 l 1,5,-1
 600.5 0 l 1,6,-1
 600.5 1075 l 2,7,8
 597.5 1093 597.5 1093 567.5 1072 c 2,9,-1
 433.5 967 l 1,10,-1
 433.5 1268 l 1,11,-1
 524.5 1339 l 2,12,13
 551.5 1364 551.5 1364 600.5 1364 c 1,0,-1
EndSplineSet
EndChar

StartChar: two
Encoding: 50 50 70
Width: 1285
Flags: W
LayerCount: 2
Fore
SplineSet
474.719726562 1157 m 2,0,1
 406.719726562 1158 406.719726562 1158 400.719726562 1101 c 1,2,-1
 400.719726562 1016 l 1,3,-1
 153.719726562 1016 l 1,4,-1
 153.719726562 1073 l 2,5,6
 153.719726562 1366 153.719726562 1366 516.719726562 1364 c 2,7,-1
 785.719726562 1364 l 2,8,9
 1123.71972656 1366 1123.71972656 1366 1130.71972656 1056 c 1,10,-1
 1130.71972656 905 l 1,11,12
 1134.71972656 853 1134.71972656 853 1110.21972656 786 c 128,-1,13
 1085.71972656 719 1085.71972656 719 1005.71972656 687 c 1,14,-1
 492.719726562 437 l 2,15,16
 436.719726562 413 436.719726562 413 435.719726562 337 c 2,17,-1
 434.719726562 227 l 1,18,-1
 1120.71972656 227 l 1,19,-1
 1120.71972656 -1 l 1,20,-1
 179.719726562 -1 l 1,21,-1
 179.719726562 456 l 2,22,23
 176.719726562 587 176.719726562 587 286.719726562 652 c 1,24,25
 881.719726562 906 881.719726562 906 880.719726562 911 c 2,26,-1
 880.719726562 1074 l 2,27,28
 882.719726562 1156 882.719726562 1156 793.719726562 1157 c 2,29,-1
 474.719726562 1157 l 2,0,1
EndSplineSet
EndChar

StartChar: three
Encoding: 51 51 71
Width: 1285
Flags: W
LayerCount: 2
Fore
SplineSet
469.9921875 1156 m 2,0,1
 400.9921875 1156 400.9921875 1156 395.9921875 1100 c 1,2,-1
 395.9921875 1036 l 1,3,-1
 150.9921875 1036 l 1,4,-1
 148.9921875 1073 l 1,5,6
 148.9921875 1366 148.9921875 1366 477.9921875 1364 c 2,7,-1
 917.9921875 1364 l 2,8,9
 1152.9921875 1366 1152.9921875 1366 1152.9921875 1166 c 2,10,-1
 1152.9921875 866 l 1,11,12
 1158.9921875 734 1158.9921875 734 1036.9921875 732 c 1,13,14
 1168.9921875 732 1168.9921875 732 1174.9921875 624 c 1,15,-1
 1174.9921875 188 l 2,16,17
 1176.9921875 1 1176.9921875 1 929.9921875 0 c 2,18,-1
 437.9921875 0 l 2,19,20
 110.9921875 -2 110.9921875 -2 109.9921875 260 c 1,21,-1
 110.9921875 300 l 1,22,-1
 355.9921875 300 l 1,23,-1
 357.9921875 271 l 2,24,25
 363.9921875 214 363.9921875 214 427.9921875 218 c 1,26,-1
 860.9921875 218 l 1,27,28
 919.9921875 226 919.9921875 226 919.9921875 288 c 2,29,-1
 919.9921875 562 l 1,30,31
 912.9921875 607 912.9921875 607 866.9921875 614 c 1,32,-1
 391.9921875 614 l 1,33,-1
 391.9921875 821 l 1,34,-1
 837.9921875 821 l 1,35,36
 899.9921875 827 899.9921875 827 899.9921875 889 c 2,37,-1
 899.9921875 1100 l 1,38,39
 892.9921875 1156 892.9921875 1156 822.9921875 1156 c 2,40,-1
 469.9921875 1156 l 2,0,1
EndSplineSet
EndChar

StartChar: four
Encoding: 52 52 72
Width: 1285
Flags: W
LayerCount: 2
Fore
SplineSet
878.5 615 m 1,0,-1
 878.5 900 l 1,1,-1
 1112.5 900 l 1,2,-1
 1112.5 -1 l 1,3,-1
 878.5 -1 l 1,4,-1
 878.5 406 l 1,5,-1
 172.5 406 l 1,6,-1
 172.5 786 l 1,7,-1
 512.5 1364 l 1,8,-1
 727.5 1364 l 1,9,-1
 727.5 1212 l 1,10,-1
 414.5 679 l 1,11,-1
 414.5 615 l 1,12,-1
 878.5 615 l 1,0,-1
EndSplineSet
EndChar

StartChar: five
Encoding: 53 53 73
Width: 1285
Flags: W
LayerCount: 2
Fore
SplineSet
443.466796875 0 m 2,0,1
 137.466796875 0 137.466796875 0 137.466796875 289 c 2,2,-1
 137.466796875 345 l 1,3,-1
 381.466796875 345 l 1,4,-1
 381.466796875 262 l 1,5,6
 388.466796875 204 388.466796875 204 455.466796875 206 c 2,7,-1
 837.466796875 206 l 1,8,9
 897.466796875 211 897.466796875 211 897.466796875 273 c 2,10,-1
 897.466796875 616 l 1,11,12
 891.466796875 663 891.466796875 663 845.466796875 669 c 1,13,-1
 318.466796875 669 l 2,14,15
 137.466796875 667 137.466796875 667 135.466796875 831 c 2,16,-1
 135.466796875 1364 l 1,17,-1
 1081.46679688 1364 l 1,18,-1
 1081.46679688 1156 l 1,19,-1
 381.466796875 1156 l 1,20,-1
 381.466796875 873 l 1,21,-1
 919.466796875 873 l 1,22,23
 1153.46679688 869 1153.46679688 869 1149.46679688 664 c 1,24,-1
 1149.46679688 184 l 2,25,26
 1151.46679688 0 1151.46679688 0 906.466796875 0 c 2,27,-1
 443.466796875 0 l 2,0,1
EndSplineSet
EndChar

StartChar: six
Encoding: 54 54 74
Width: 1285
Flags: W
LayerCount: 2
Fore
SplineSet
358.466796875 668 m 1,0,-1
 357.466796875 262 l 1,1,2
 364.466796875 204 364.466796875 204 431.466796875 206 c 2,3,-1
 860.466796875 206 l 1,4,5
 920.466796875 211 920.466796875 211 920.466796875 273 c 2,6,-1
 920.466796875 615 l 1,7,8
 914.466796875 662 914.466796875 662 868.466796875 668 c 1,9,-1
 358.466796875 668 l 1,0,-1
893.466796875 1157 m 1,10,-1
 470.466796875 1157 l 2,11,12
 353.466796875 1160 353.466796875 1160 358.466796875 1051 c 1,13,-1
 358.466796875 873 l 1,14,-1
 942.466796875 873 l 1,15,16
 1176.46679688 869 1176.46679688 869 1172.46679688 664 c 1,17,-1
 1172.46679688 184 l 2,18,19
 1174.46679688 0 1174.46679688 0 929.466796875 0 c 2,20,-1
 419.466796875 0 l 2,21,22
 113.466796875 0 113.466796875 0 113.466796875 289 c 2,23,-1
 112.466796875 1179 l 1,24,25
 123.466796875 1356 123.466796875 1356 279.466796875 1364 c 1,26,-1
 1031.46679688 1363 l 1,27,28
 1174.46679688 1345 1174.46679688 1345 1170.46679688 1186 c 1,29,-1
 1170.46679688 1042 l 1,30,-1
 949.466796875 1042 l 1,31,-1
 949.466796875 1102 l 1,32,33
 945.466796875 1151 945.466796875 1151 893.466796875 1157 c 1,10,-1
EndSplineSet
EndChar

StartChar: seven
Encoding: 55 55 75
Width: 1285
Flags: W
LayerCount: 2
Fore
SplineSet
965 1364 m 1,0,1
 1137 1354 1137 1354 1138 1209 c 2,2,-1
 1138 888 l 1,3,-1
 584 0 l 1,4,-1
 309 0 l 1,5,-1
 309 117 l 1,6,-1
 867 983 l 1,7,-1
 867 1088 l 1,8,9
 874 1157 874 1157 806 1157 c 2,10,-1
 438 1157 l 2,11,12
 370 1157 370 1157 368 1094 c 2,13,-1
 368 1036 l 1,14,-1
 147 1036 l 1,15,-1
 147 1227 l 1,16,17
 154 1364 154 1364 295 1364 c 2,18,-1
 965 1364 l 1,0,1
EndSplineSet
EndChar

StartChar: eight
Encoding: 56 56 76
Width: 1285
Flags: W
LayerCount: 2
Fore
SplineSet
863.5 218 m 1,0,1
 924.5 224 924.5 224 924.5 286 c 2,2,-1
 924.5 553 l 1,3,4
 918.5 600 918.5 600 871.5 608 c 1,5,-1
 412.5 608 l 1,6,7
 366.5 600 366.5 600 360.5 553 c 1,8,-1
 360.5 286 l 2,9,10
 360.5 224 360.5 224 420.5 218 c 1,11,-1
 863.5 218 l 1,0,1
842.5 821 m 1,12,13
 904.5 828 904.5 828 904.5 884 c 2,14,-1
 904.5 1101 l 1,15,16
 896.5 1157 896.5 1157 826.5 1157 c 2,17,-1
 457.5 1157 l 2,18,19
 387.5 1158 387.5 1158 379.5 1101 c 1,20,-1
 379.5 884 l 2,21,22
 379.5 822 379.5 822 442.5 822 c 2,23,-1
 842.5 821 l 1,12,13
922.5 1364 m 2,24,25
 1157.5 1366 1157.5 1366 1157.5 1165 c 2,26,-1
 1157.5 845 l 1,27,28
 1163.5 713 1163.5 713 1040.5 711 c 1,29,30
 1173.5 711 1173.5 711 1179.5 602 c 1,31,-1
 1179.5 187 l 2,32,33
 1181.5 0 1181.5 0 933.5 0 c 2,34,-1
 350.5 0 l 2,35,36
 103.5 0 103.5 0 105.5 187 c 2,37,-1
 105.5 602 l 1,38,39
 111.5 711 111.5 711 243.5 711 c 1,40,41
 120.5 713 120.5 713 126.5 845 c 1,42,-1
 126.5 1165 l 2,43,44
 126.5 1366 126.5 1366 362.5 1364 c 2,45,-1
 922.5 1364 l 2,24,25
EndSplineSet
EndChar

StartChar: nine
Encoding: 57 57 77
Width: 1285
Flags: W
LayerCount: 2
Fore
SplineSet
926.533203125 821 m 1,0,-1
 927.533203125 1101 l 1,1,2
 920.533203125 1159 920.533203125 1159 853.533203125 1157 c 2,3,-1
 424.533203125 1157 l 1,4,5
 364.533203125 1152 364.533203125 1152 364.533203125 1090 c 2,6,-1
 364.533203125 874 l 1,7,8
 370.533203125 827 370.533203125 827 416.533203125 821 c 1,9,-1
 926.533203125 821 l 1,0,-1
391.533203125 218 m 1,10,-1
 814.533203125 219 l 2,11,12
 931.533203125 216 931.533203125 216 925.533203125 324 c 1,13,-1
 926.533203125 614 l 1,14,-1
 342.533203125 614 l 1,15,16
 108.533203125 618 108.533203125 618 112.533203125 819 c 1,17,-1
 112.533203125 1179 l 2,18,19
 110.533203125 1363 110.533203125 1363 355.533203125 1363 c 2,20,-1
 865.533203125 1363 l 2,21,22
 1171.53320312 1363 1171.53320312 1363 1171.53320312 1074 c 2,23,-1
 1172.53320312 187 l 1,24,25
 1161.53320312 10 1161.53320312 10 1005.53320312 2 c 1,26,-1
 253.533203125 0 l 1,27,28
 110.533203125 21 110.533203125 21 113.533203125 189 c 2,29,-1
 113.533203125 333 l 1,30,-1
 334.533203125 333 l 1,31,-1
 334.533203125 273 l 1,32,33
 339.533203125 225 339.533203125 225 391.533203125 218 c 1,10,-1
EndSplineSet
EndChar

StartChar: zero
Encoding: 48 48 78
Width: 1285
Flags: W
LayerCount: 2
Fore
SplineSet
427 0 m 1,0,1
 89 15 89 15 93 290 c 2,2,-1
 94 1062 l 2,3,4
 94 1354 94 1354 431 1364 c 1,5,-1
 845 1364 l 1,6,7
 1196 1358 1196 1358 1196 1060 c 2,8,-1
 1197 288 l 2,9,10
 1197 7 1197 7 842 0 c 1,11,-1
 427 0 l 1,0,1
430 1156 m 1,12,13
 349 1129 349 1129 345 1030 c 1,14,-1
 345 342 l 2,15,16
 345 241 345 241 430 218 c 1,17,-1
 845 219 l 1,18,19
 941 231 941 231 941 341 c 2,20,-1
 941 1028 l 1,21,22
 937 1137 937 1137 843 1157 c 1,23,-1
 430 1156 l 1,12,13
EndSplineSet
EndChar

StartChar: sterling
Encoding: 163 163 79
Width: 1286
Flags: W
LayerCount: 2
Fore
SplineSet
91 -2 m 1,0,-1
 92 209 l 1,1,-1
 164 209 l 1,2,3
 273 243 273 243 283 344 c 1,4,-1
 284 523 l 1,5,-1
 95 523 l 1,6,-1
 95 726 l 1,7,-1
 284 726 l 1,8,-1
 284 1061 l 2,9,10
 284 1364 284 1364 653 1362 c 2,11,-1
 865 1362 l 2,12,13
 1232 1365 1232 1365 1232 1071 c 2,14,-1
 1232 940 l 1,15,-1
 978 940 l 1,16,-1
 978 1100 l 1,17,18
 971 1156 971 1156 900 1156 c 2,19,-1
 688 1156 l 2,20,21
 543 1156 543 1156 538 1022 c 1,22,-1
 537 725 l 1,23,-1
 852 725 l 1,24,-1
 852 523 l 1,25,-1
 537 523 l 1,26,-1
 536 346 l 1,27,28
 515 225 515 225 441 209 c 1,29,-1
 1226 209 l 1,30,-1
 1226 -1 l 1,31,-1
 91 -2 l 1,0,-1
EndSplineSet
EndChar

StartChar: dollar
Encoding: 36 36 80
Width: 1286
Flags: W
LayerCount: 2
Fore
SplineSet
733 600 m 1,0,-1
 733 207 l 1,1,-1
 784 207 l 2,2,3
 929 207 929 207 934 341 c 1,4,-1
 934 468 l 2,5,6
 934 592 934 592 807 600 c 1,7,-1
 733 600 l 1,0,-1
548 1170 m 1,8,-1
 497 1170 l 2,9,10
 352 1170 352 1170 347 1036 c 1,11,-1
 347 940 l 2,12,13
 347 816 347 816 479 810 c 1,14,-1
 548 810 l 1,15,-1
 548 1170 l 1,8,-1
548 601 m 1,16,-1
 465 601 l 2,17,18
 91 601 91 601 93 890 c 2,19,-1
 93 1075 l 2,20,21
 93 1378 93 1378 462 1376 c 2,22,-1
 548 1376 l 1,23,-1
 548 1516 l 1,24,-1
 733 1516 l 1,25,-1
 733 1377 l 1,26,-1
 780 1377 l 2,27,28
 1154 1379 1154 1379 1154 1085 c 2,29,-1
 1154 1030 l 1,30,-1
 900 1030 l 1,31,-1
 900 1114 l 1,32,33
 893 1170 893 1170 822 1170 c 2,34,-1
 733 1170 l 1,35,-1
 733 809 l 1,36,-1
 816 809 l 2,37,38
 1190 807 1190 807 1188 518 c 2,39,-1
 1188 302 l 2,40,41
 1188 0 1188 0 819 1 c 2,42,-1
 733 1 l 1,43,-1
 733 -158 l 1,44,-1
 548 -158 l 1,45,-1
 548 2 l 1,46,-1
 519 2 l 1,47,-1
 519 1 l 1,48,-1
 464 1 l 2,49,50
 90 0 90 0 90 293 c 2,51,-1
 90 424 l 1,52,-1
 344 424 l 1,53,-1
 344 264 l 1,54,55
 351 208 351 208 422 208 c 2,56,-1
 548 208 l 1,57,-1
 548 601 l 1,16,-1
EndSplineSet
EndChar

StartChar: cent
Encoding: 162 162 81
Width: 1285
Flags: W
LayerCount: 2
Fore
SplineSet
710 1117 m 1,0,-1
 856 1117 l 1,1,2
 1045 1111 1045 1111 1045 928 c 2,3,-1
 1045 819 l 1,4,-1
 850 819 l 1,5,-1
 850 848 l 2,6,7
 848 920 848 920 758 920 c 2,8,-1
 710 920 l 1,9,-1
 710 345 l 1,10,-1
 776 345 l 2,11,12
 879 343 879 343 873 436 c 1,13,-1
 873 443 l 1,14,-1
 1068 443 l 1,15,-1
 1068 335 l 2,16,17
 1068 152 1068 152 879 150 c 2,18,-1
 710 150 l 1,19,-1
 710 -22 l 1,20,-1
 562 -22 l 1,21,-1
 562 150 l 1,22,-1
 384 150 l 1,23,24
 195 154 195 154 195 337 c 2,25,-1
 195 928 l 2,26,27
 195 1111 195 1111 384 1117 c 1,28,-1
 562 1117 l 1,29,-1
 562 1267 l 1,30,-1
 710 1267 l 1,31,-1
 710 1117 l 1,0,-1
562 920 m 1,32,-1
 483 920 l 2,33,34
 394 920 394 920 390 827 c 1,35,-1
 390 438 l 2,36,37
 390 345 390 345 483 345 c 2,38,-1
 562 345 l 1,39,-1
 562 920 l 1,32,-1
EndSplineSet
EndChar

StartChar: florin
Encoding: 402 402 82
Width: 1285
Flags: W
LayerCount: 2
Fore
SplineSet
1182 -279 m 1,0,-1
 1181 -279 l 1,1,-1
 1181 -281 l 1,2,-1
 1182 -279 l 1,0,-1
596 1023 m 1,3,-1
 634 1269 l 2,4,5
 669 1515 669 1515 944 1511 c 1,6,-1
 1172 1511 l 1,7,-1
 1116 1342 l 1,8,-1
 956 1342 l 2,9,10
 872 1339 872 1339 844 1226 c 1,11,-1
 813 1023 l 1,12,-1
 1051 1023 l 1,13,-1
 1017 848 l 1,14,-1
 787 848 l 1,15,-1
 652 -44 l 1,16,17
 652 -286 652 -286 338 -286 c 2,18,-1
 111 -286 l 1,19,-1
 165 -117 l 1,20,-1
 325 -117 l 2,21,22
 409 -114 409 -114 438 -2 c 1,23,-1
 569 848 l 1,24,-1
 398 848 l 1,25,-1
 431 1023 l 1,26,-1
 596 1023 l 1,3,-1
EndSplineSet
EndChar

StartChar: yen
Encoding: 165 165 83
Width: 1285
Flags: W
LayerCount: 2
Fore
SplineSet
774 411 m 1,0,-1
 774 2 l 1,1,-1
 514 2 l 1,2,-1
 514 411 l 1,3,-1
 88 411 l 1,4,-1
 88 615 l 1,5,-1
 505 615 l 1,6,-1
 444 712 l 1,7,-1
 403 781 l 1,8,-1
 88 781 l 1,9,-1
 88 985 l 1,10,-1
 281 985 l 1,11,-1
 54 1365 l 1,12,-1
 359 1365 l 1,13,-1
 596 955 l 1,14,-1
 647 875 l 1,15,-1
 697 955 l 1,16,-1
 934 1365 l 1,17,-1
 1239 1365 l 1,18,-1
 1012 985 l 1,19,-1
 1199 985 l 1,20,-1
 1199 781 l 1,21,-1
 890 781 l 1,22,-1
 849 712 l 1,23,-1
 788 615 l 1,24,-1
 1198 615 l 1,25,-1
 1198 411 l 1,26,-1
 774 411 l 1,0,-1
EndSplineSet
EndChar

StartChar: period
Encoding: 46 46 84
Width: 434
Flags: W
LayerCount: 2
Fore
SplineSet
338 211 m 1,0,-1
 338 0 l 1,1,-1
 105 0 l 1,2,-1
 105 211 l 1,3,-1
 338 211 l 1,0,-1
EndSplineSet
EndChar

StartChar: colon
Encoding: 58 58 85
Width: 1285
Flags: W
LayerCount: 2
Fore
SplineSet
759 261 m 1,0,-1
 759 50 l 1,1,-1
 526 50 l 1,2,-1
 526 261 l 1,3,-1
 759 261 l 1,0,-1
759 911 m 1,4,-1
 759 700 l 1,5,-1
 526 700 l 1,6,-1
 526 911 l 1,7,-1
 759 911 l 1,4,-1
EndSplineSet
EndChar

StartChar: periodcentered
Encoding: 8729 8729 86
Width: 856
Flags: W
LayerCount: 2
Fore
SplineSet
542 589 m 1,0,-1
 542 378 l 1,1,-1
 309 378 l 1,2,-1
 309 589 l 1,3,-1
 542 589 l 1,0,-1
EndSplineSet
EndChar

StartChar: ellipsis
Encoding: 8230 8230 87
Width: 1299
Flags: W
LayerCount: 2
Fore
SplineSet
338 211 m 1,0,-1
 338 0 l 1,1,-1
 105 0 l 1,2,-1
 105 211 l 1,3,-1
 338 211 l 1,0,-1
768 211 m 1,4,-1
 768 0 l 1,5,-1
 535 0 l 1,6,-1
 535 211 l 1,7,-1
 768 211 l 1,4,-1
1198 211 m 1,8,-1
 1198 0 l 1,9,-1
 965 0 l 1,10,-1
 965 211 l 1,11,-1
 1198 211 l 1,8,-1
EndSplineSet
EndChar

StartChar: comma
Encoding: 44 44 88
Width: 359
Flags: W
LayerCount: 2
Fore
SplineSet
179 6 m 1,0,-1
 63 6 l 1,1,-1
 63 220 l 1,2,-1
 296 220 l 1,3,-1
 296 6 l 1,4,-1
 295 6 l 1,5,-1
 295 1 l 2,6,7
 296 -224 296 -224 89 -228 c 1,8,-1
 48 -228 l 1,9,-1
 48 -107 l 1,10,11
 175 -114 175 -114 179 6 c 1,0,-1
EndSplineSet
EndChar

StartChar: semicolon
Encoding: 59 59 89
Width: 430
Flags: W
LayerCount: 2
Fore
SplineSet
199 2 m 1,0,-1
 83 2 l 1,1,-1
 83 216 l 1,2,-1
 316 216 l 1,3,-1
 316 2 l 1,4,-1
 315 2 l 1,5,-1
 315 -3 l 2,6,7
 316 -229 316 -229 109 -233 c 1,8,-1
 68 -233 l 1,9,-1
 68 -112 l 1,10,11
 195 -120 195 -120 199 2 c 1,0,-1
317 922 m 1,12,-1
 317 711 l 1,13,-1
 84 711 l 1,14,-1
 84 922 l 1,15,-1
 317 922 l 1,12,-1
EndSplineSet
EndChar

StartChar: quoteleft
Encoding: 8216 8216 90
Width: 422
Flags: W
LayerCount: 2
Fore
SplineSet
200 1130 m 1,0,-1
 316 1130 l 1,1,-1
 316 916 l 1,2,-1
 83 916 l 1,3,-1
 83 1130 l 1,4,-1
 84 1130 l 1,5,-1
 84 1135 l 2,6,7
 83 1361 83 1361 290 1365 c 1,8,-1
 331 1365 l 1,9,-1
 331 1244 l 1,10,11
 204 1252 204 1252 200 1130 c 1,0,-1
EndSplineSet
EndChar

StartChar: quotedblright
Encoding: 8221 8221 91
Width: 770
Flags: W
LayerCount: 2
Fore
SplineSet
226 1153 m 1,0,-1
 110 1153 l 1,1,-1
 110 1367 l 1,2,-1
 343 1367 l 1,3,-1
 343 1153 l 1,4,-1
 342 1153 l 1,5,-1
 342 1148 l 2,6,7
 343 922 343 922 136 918 c 1,8,-1
 95 918 l 1,9,-1
 95 1039 l 1,10,11
 222 1031 222 1031 226 1153 c 1,0,-1
576 1153 m 1,12,-1
 460 1153 l 1,13,-1
 460 1367 l 1,14,-1
 693 1367 l 1,15,-1
 693 1153 l 1,16,-1
 692 1153 l 1,17,-1
 692 1148 l 2,18,19
 693 922 693 922 486 918 c 1,20,-1
 445 918 l 1,21,-1
 445 1039 l 1,22,23
 572 1031 572 1031 576 1153 c 1,12,-1
EndSplineSet
EndChar

StartChar: quotedblleft
Encoding: 8220 8220 92
Width: 770
Flags: W
LayerCount: 2
Fore
SplineSet
562 1159 m 1,0,-1
 678 1159 l 1,1,-1
 678 945 l 1,2,-1
 445 945 l 1,3,-1
 445 1159 l 1,4,-1
 446 1159 l 1,5,-1
 446 1164 l 2,6,7
 445 1390 445 1390 652 1394 c 1,8,-1
 693 1394 l 1,9,-1
 693 1273 l 1,10,11
 566 1281 566 1281 562 1159 c 1,0,-1
212 1159 m 1,12,-1
 328 1159 l 1,13,-1
 328 945 l 1,14,-1
 95 945 l 1,15,-1
 95 1159 l 1,16,-1
 96 1159 l 1,17,-1
 96 1164 l 2,18,19
 95 1390 95 1390 302 1394 c 1,20,-1
 343 1394 l 1,21,-1
 343 1273 l 1,22,23
 216 1281 216 1281 212 1159 c 1,12,-1
EndSplineSet
EndChar

StartChar: quotedblbase
Encoding: 8222 8222 93
Width: 770
Flags: W
LayerCount: 2
Fore
SplineSet
228 2 m 1,0,-1
 112 2 l 1,1,-1
 112 216 l 1,2,-1
 345 216 l 1,3,-1
 345 2 l 1,4,-1
 344 2 l 1,5,-1
 344 -2 l 2,6,7
 345 -228 345 -228 138 -232 c 1,8,-1
 97 -232 l 1,9,-1
 97 -111 l 1,10,11
 224 -119 224 -119 228 2 c 1,0,-1
578 2 m 1,12,-1
 462 2 l 1,13,-1
 462 216 l 1,14,-1
 695 216 l 1,15,-1
 695 2 l 1,16,-1
 694 2 l 1,17,-1
 694 -2 l 2,18,19
 695 -228 695 -228 488 -232 c 1,20,-1
 447 -232 l 1,21,-1
 447 -111 l 1,22,23
 574 -119 574 -119 578 2 c 1,12,-1
EndSplineSet
EndChar

StartChar: exclam
Encoding: 33 33 94
Width: 563
Flags: W
LayerCount: 2
Fore
SplineSet
157 2 m 1,0,-1
 157 198 l 1,1,-1
 390 198 l 1,2,-1
 390 2 l 1,3,-1
 157 2 l 1,0,-1
161 398 m 1,4,-1
 116 1366 l 1,5,-1
 437 1366 l 1,6,-1
 383 399 l 1,7,-1
 161 398 l 1,4,-1
EndSplineSet
EndChar

StartChar: exclamdown
Encoding: 161 161 95
Width: 563
Flags: W
LayerCount: 2
Fore
SplineSet
409 955 m 1,0,-1
 409 759 l 1,1,-1
 176 759 l 1,2,-1
 176 955 l 1,3,-1
 409 955 l 1,0,-1
402 559 m 1,4,-1
 456 -408 l 1,5,-1
 135 -408 l 1,6,-1
 180 560 l 1,7,-1
 402 559 l 1,4,-1
EndSplineSet
EndChar

StartChar: question
Encoding: 63 63 96
Width: 1083
Flags: W
LayerCount: 2
Fore
SplineSet
599 210 m 1,0,-1
 599 -1 l 1,1,-1
 366 -1 l 1,2,-1
 366 210 l 1,3,-1
 599 210 l 1,0,-1
670 824 m 1,4,5
 732 830 732 830 732 892 c 2,6,-1
 732 1111 l 1,7,8
 725 1167 725 1167 655 1167 c 2,9,-1
 422 1167 l 2,10,11
 353 1167 353 1167 348 1111 c 1,12,-1
 349 1013 l 1,13,-1
 102 1013 l 1,14,-1
 101 1082 l 1,15,16
 101 1375 101 1375 430 1373 c 2,17,-1
 750 1373 l 2,18,19
 985 1375 985 1375 985 1175 c 2,20,-1
 985 864 l 1,21,22
 1005 616 1005 616 703 619 c 1,23,-1
 703 618 l 1,24,-1
 679 618 l 1,25,26
 606 625 606 625 605 506 c 2,27,-1
 605 437 l 1,28,-1
 358 437 l 1,29,-1
 357 507 l 1,30,31
 344 816 344 816 549 824 c 1,32,-1
 670 824 l 1,4,5
EndSplineSet
EndChar

StartChar: questiondown
Encoding: 191 191 97
Width: 1083
Flags: W
LayerCount: 2
Fore
SplineSet
488 743 m 1,0,-1
 488 954 l 1,1,-1
 721 954 l 1,2,-1
 721 743 l 1,3,-1
 488 743 l 1,0,-1
417 128 m 1,4,5
 355 122 355 122 355 60 c 2,6,-1
 355 -158 l 1,7,8
 362 -214 362 -214 432 -214 c 2,9,-1
 665 -214 l 2,10,11
 734 -214 734 -214 739 -158 c 1,12,-1
 738 -60 l 1,13,-1
 985 -60 l 1,14,-1
 986 -129 l 1,15,16
 986 -422 986 -422 657 -420 c 2,17,-1
 337 -420 l 2,18,19
 102 -422 102 -422 102 -222 c 2,20,-1
 102 88 l 1,21,22
 82 336 82 336 384 333 c 1,23,-1
 384 334 l 1,24,-1
 408 334 l 1,25,26
 481 327 481 327 482 446 c 2,27,-1
 482 515 l 1,28,-1
 729 515 l 1,29,-1
 730 445 l 1,30,31
 743 136 743 136 538 128 c 1,32,-1
 417 128 l 1,4,5
EndSplineSet
EndChar

StartChar: guillemotright
Encoding: 187 187 98
Width: 969
Flags: W
LayerCount: 2
Fore
SplineSet
399 913 m 1,0,-1
 399 972 l 1,1,-1
 552 972 l 1,2,-1
 861 556 l 1,3,-1
 861 467 l 1,4,-1
 552 51 l 1,5,-1
 399 51 l 1,6,-1
 399 110 l 1,7,-1
 696 512 l 1,8,-1
 399 913 l 1,0,-1
101 913 m 1,9,-1
 101 972 l 1,10,-1
 255 972 l 1,11,-1
 564 556 l 1,12,-1
 564 467 l 1,13,-1
 255 51 l 1,14,-1
 101 51 l 1,15,-1
 101 110 l 1,16,-1
 398 512 l 1,17,-1
 101 913 l 1,9,-1
EndSplineSet
EndChar

StartChar: guillemotleft
Encoding: 171 171 99
Width: 969
Flags: W
LayerCount: 2
Fore
SplineSet
260 512 m 1,0,-1
 557 110 l 1,1,-1
 557 51 l 1,2,-1
 403 51 l 1,3,-1
 94 467 l 1,4,-1
 94 557 l 1,5,-1
 403 972 l 1,6,-1
 557 972 l 1,7,-1
 557 913 l 1,8,-1
 260 512 l 1,0,-1
558 512 m 1,9,-1
 854 110 l 1,10,-1
 854 51 l 1,11,-1
 701 51 l 1,12,-1
 392 467 l 1,13,-1
 392 556 l 1,14,-1
 701 972 l 1,15,-1
 854 972 l 1,16,-1
 854 913 l 1,17,-1
 558 512 l 1,9,-1
EndSplineSet
EndChar

StartChar: guilsinglright
Encoding: 8250 8250 100
Width: 590
Flags: W
LayerCount: 2
Fore
SplineSet
101 913 m 1,0,-1
 101 972 l 1,1,-1
 255 972 l 1,2,-1
 564 556 l 1,3,-1
 564 467 l 1,4,-1
 255 51 l 1,5,-1
 101 51 l 1,6,-1
 101 110 l 1,7,-1
 398 512 l 1,8,-1
 101 913 l 1,0,-1
EndSplineSet
EndChar

StartChar: guilsinglleft
Encoding: 8249 8249 101
Width: 590
Flags: W
LayerCount: 2
Fore
SplineSet
267 512 m 1,0,-1
 564 110 l 1,1,-1
 564 51 l 1,2,-1
 410 51 l 1,3,-1
 101 467 l 1,4,-1
 101 556 l 1,5,-1
 410 972 l 1,6,-1
 564 972 l 1,7,-1
 564 913 l 1,8,-1
 267 512 l 1,0,-1
EndSplineSet
EndChar

StartChar: slash
Encoding: 47 47 102
Width: 1243
Flags: W
LayerCount: 2
Fore
SplineSet
1092 1368 m 1,0,-1
 1094 1273 l 1,1,-1
 138 -60 l 1,2,-1
 -5 -59 l 1,3,-1
 -5 42 l 1,4,-1
 944 1368 l 1,5,-1
 1092 1368 l 1,0,-1
EndSplineSet
EndChar

StartChar: hyphen
Encoding: 45 45 103
AltUni2: 0000ad.ffffffff.0
Width: 457
Flags: W
LayerCount: 2
Fore
SplineSet
452 634 m 1,0,-1
 452 423 l 1,1,-1
 32 423 l 1,2,-1
 32 634 l 1,3,-1
 452 634 l 1,0,-1
EndSplineSet
EndChar

StartChar: endash
Encoding: 8211 8211 104
Width: 1284
Flags: W
LayerCount: 2
Fore
SplineSet
1058 607 m 1,0,-1
 1058 396 l 1,1,-1
 227 396 l 1,2,-1
 227 607 l 1,3,-1
 1058 607 l 1,0,-1
EndSplineSet
EndChar

StartChar: emdash
Encoding: 8212 8212 105
Width: 1442
Flags: W
LayerCount: 2
Fore
SplineSet
1432 605 m 1,0,-1
 1432 394 l 1,1,-1
 12 394 l 1,2,-1
 12 605 l 1,3,-1
 1432 605 l 1,0,-1
EndSplineSet
EndChar

StartChar: parenleft
Encoding: 40 40 106
Width: 634
Flags: W
LayerCount: 2
Fore
SplineSet
492 -411 m 1,0,1
 97 -406 97 -406 102 -74 c 1,2,-1
 102 1016 l 2,3,4
 102 1369 102 1369 504 1367 c 2,5,-1
 527 1367 l 1,6,-1
 527 1127 l 1,7,8
 360 1127 360 1127 353 971 c 1,9,-1
 353 -16 l 2,10,11
 353 -160 353 -160 522 -171 c 1,12,-1
 521 -411 l 1,13,-1
 492 -411 l 1,0,1
EndSplineSet
EndChar

StartChar: parenright
Encoding: 41 41 107
Width: 634
Flags: W
LayerCount: 2
Fore
SplineSet
107 -411 m 1,0,-1
 106 -171 l 1,1,2
 275 -160 275 -160 275 -16 c 2,3,-1
 275 971 l 1,4,5
 268 1127 268 1127 101 1127 c 1,6,-1
 101 1367 l 1,7,-1
 124 1367 l 2,8,9
 526 1369 526 1369 526 1016 c 2,10,-1
 526 -74 l 1,11,12
 531 -406 531 -406 136 -411 c 1,13,-1
 107 -411 l 1,0,-1
EndSplineSet
EndChar

StartChar: bracketleft
Encoding: 91 91 108
Width: 634
Flags: W
LayerCount: 2
Fore
SplineSet
541 1365 m 1,0,-1
 540 1164 l 1,1,-1
 359 1164 l 1,2,-1
 359 -198 l 1,3,-1
 542 -198 l 1,4,-1
 543 -408 l 1,5,-1
 113 -408 l 1,6,-1
 113 1365 l 1,7,-1
 541 1365 l 1,0,-1
EndSplineSet
EndChar

StartChar: bracketright
Encoding: 93 93 109
Width: 627
Flags: W
LayerCount: 2
Fore
SplineSet
533 1365 m 1,0,-1
 533 -408 l 1,1,-1
 103 -408 l 1,2,-1
 103 -198 l 1,3,-1
 287 -198 l 1,4,-1
 287 1164 l 1,5,-1
 106 1164 l 1,6,-1
 105 1365 l 1,7,-1
 533 1365 l 1,0,-1
EndSplineSet
EndChar

StartChar: ampersand
Encoding: 38 38 110
Width: 1421
Flags: W
LayerCount: 2
Fore
SplineSet
1196 336 m 1,0,-1
 1196 285 l 2,1,2
 1196 -2 1196 -2 902 0 c 2,3,-1
 376 -1 l 2,4,5
 130 1 130 1 132 184 c 2,6,-1
 132 502 l 2,7,8
 131 709 131 709 368 709 c 1,9,10
 247 711 247 711 253 841 c 1,11,-1
 253 1154 l 2,12,13
 253 1351 253 1351 484 1354 c 2,14,-1
 843 1353 l 2,15,16
 1106 1355 1106 1355 1106 1117 c 2,17,-1
 1107 1030 l 1,18,-1
 863 1030 l 1,19,-1
 863 1095 l 1,20,21
 858 1151 858 1151 792 1146 c 1,22,-1
 578 1147 l 2,23,24
 497 1147 497 1147 501 1081 c 1,25,-1
 501 879 l 2,26,27
 501 818 501 818 562 813 c 1,28,-1
 723 814 l 1,29,-1
 723 598 l 1,30,-1
 506 598 l 2,31,32
 388 598 388 598 382 480 c 1,33,-1
 382 272 l 2,34,35
 382 211 382 211 441 205 c 1,36,-1
 881 203 l 2,37,38
 948 201 948 201 953 257 c 1,39,-1
 953 549 l 1,40,-1
 1196 549 l 1,41,-1
 1196 548 l 1,42,-1
 1324 548 l 1,43,-1
 1324 336 l 1,44,-1
 1196 336 l 1,0,-1
EndSplineSet
EndChar

StartChar: section
Encoding: 167 167 111
Width: 1283
Flags: W
LayerCount: 2
Fore
SplineSet
337 373 m 1,0,-1
 336 393 l 1,1,2
 335 382 335 382 337 373 c 1,0,-1
226 717 m 1,3,4
 107 767 107 767 105 885 c 2,5,-1
 105 1107 l 1,6,7
 110 1387 110 1387 436 1382 c 1,8,-1
 349 1384 l 1,9,-1
 823 1384 l 1,10,11
 1097 1380 1097 1380 1097 1152 c 2,12,-1
 1097 1017 l 1,13,-1
 828 1017 l 1,14,-1
 828 1084 l 1,15,16
 821 1141 821 1141 757 1139 c 2,17,-1
 477 1139 l 2,18,19
 379 1136 379 1136 380 1042 c 2,20,-1
 380 995 l 1,21,22
 376 929 376 929 471 916 c 2,23,-1
 898 864 l 1,24,25
 1152 799 1152 799 1154 604 c 2,26,-1
 1153 311 l 2,27,28
 1151 234 1151 234 1118 184 c 1,29,30
 1194 117 1194 117 1196 10 c 2,31,-1
 1194 -193 l 1,32,33
 1187 -413 1187 -413 930 -413 c 2,34,-1
 296 -413 l 1,35,36
 109 -405 109 -405 109 -209 c 2,37,-1
 109 -74 l 1,38,-1
 378 -74 l 1,39,-1
 378 -110 l 1,40,41
 373 -164 373 -164 439 -169 c 1,42,-1
 804 -169 l 2,43,44
 909 -169 909 -169 909 -98 c 2,45,-1
 909 -54 l 1,46,47
 914 8 914 8 844 26 c 1,48,-1
 342 101 l 1,49,50
 148 141 148 141 146 291 c 2,51,-1
 146 513 l 2,52,53
 148 648 148 648 226 717 c 1,3,4
868 497 m 1,54,55
 859 546 859 546 798 545 c 2,56,-1
 519 545 l 1,57,58
 420 541 420 541 421 448 c 2,59,-1
 421 400 l 2,60,61
 419 355 419 355 462 335 c 1,62,-1
 763 335 l 2,63,64
 868 335 868 335 868 406 c 2,65,-1
 868 497 l 1,54,55
EndSplineSet
EndChar

StartChar: dagger
Encoding: 8224 8224 112
Width: 1283
Flags: W
LayerCount: 2
Fore
SplineSet
508 1024 m 1,0,-1
 508 1366 l 1,1,-1
 767 1366 l 1,2,-1
 767 1024 l 1,3,-1
 1093 1024 l 1,4,-1
 1093 765 l 1,5,-1
 767 765 l 1,6,-1
 767 -400 l 1,7,-1
 508 -400 l 1,8,-1
 508 765 l 1,9,-1
 188 765 l 1,10,-1
 188 1024 l 1,11,-1
 508 1024 l 1,0,-1
EndSplineSet
EndChar

StartChar: daggerdbl
Encoding: 8225 8225 113
Width: 1283
Flags: W
LayerCount: 2
Fore
SplineSet
508 188 m 1,0,-1
 508 765 l 1,1,-1
 188 765 l 1,2,-1
 188 1024 l 1,3,-1
 508 1024 l 1,4,-1
 508 1366 l 1,5,-1
 767 1366 l 1,6,-1
 767 1024 l 1,7,-1
 1093 1024 l 1,8,-1
 1093 765 l 1,9,-1
 767 765 l 1,10,-1
 767 188 l 1,11,-1
 1090 188 l 1,12,-1
 1090 -73 l 1,13,-1
 767 -73 l 1,14,-1
 767 -400 l 1,15,-1
 508 -400 l 1,16,-1
 508 -73 l 1,17,-1
 186 -73 l 1,18,-1
 186 188 l 1,19,-1
 508 188 l 1,0,-1
EndSplineSet
EndChar

StartChar: asterisk
Encoding: 42 42 114
Width: 1281
Flags: W
LayerCount: 2
Fore
SplineSet
550 661 m 1,0,-1
 550 836 l 1,1,-1
 410 735 l 1,2,-1
 303 877 l 1,3,-1
 488 1014 l 1,4,-1
 303 1138 l 1,5,-1
 410 1298 l 1,6,-1
 550 1193 l 1,7,-1
 550 1366 l 1,8,-1
 750 1366 l 1,9,-1
 750 1193 l 1,10,-1
 890 1298 l 1,11,-1
 997 1138 l 1,12,-1
 812 1014 l 1,13,-1
 997 876 l 1,14,-1
 890 734 l 1,15,-1
 750 835 l 1,16,-1
 750 661 l 1,17,-1
 550 661 l 1,0,-1
EndSplineSet
EndChar

StartChar: quotesingle
Encoding: 39 39 115
Width: 398
Flags: W
LayerCount: 2
Fore
SplineSet
273 1363 m 1,0,-1
 305 1330 l 1,1,-1
 258 832 l 1,2,-1
 137 832 l 1,3,-1
 93 1329 l 1,4,-1
 133 1363 l 1,5,-1
 273 1363 l 1,0,-1
EndSplineSet
EndChar

StartChar: quotedbl
Encoding: 34 34 116
Width: 758
Flags: W
LayerCount: 2
Fore
SplineSet
273 1363 m 1,0,-1
 305 1330 l 1,1,-1
 258 832 l 1,2,-1
 137 832 l 1,3,-1
 93 1329 l 1,4,-1
 133 1363 l 1,5,-1
 273 1363 l 1,0,-1
633 1363 m 1,6,-1
 665 1330 l 1,7,-1
 618 832 l 1,8,-1
 497 832 l 1,9,-1
 453 1329 l 1,10,-1
 493 1363 l 1,11,-1
 633 1363 l 1,6,-1
EndSplineSet
EndChar

StartChar: at
Encoding: 64 64 117
Width: 1429
Flags: W
LayerCount: 2
Fore
SplineSet
629 482 m 1,1,-1
 745 482 l 2,2,3
 843 482 843 482 843 569 c 2,4,-1
 843 811 l 1,5,-1
 629 811 l 2,6,7
 570 814 570 814 565 755 c 1,8,-1
 565 739 l 1,9,-1
 565 537 l 1,10,0
 570 478 570 478 629 482 c 1,1,-1
455 1083 m 2,11,12
 323 1083 323 1083 318 959 c 1,13,-1
 318 321 l 2,14,15
 318 207 318 207 439 200 c 1,16,-1
 1071 201 l 1,17,-1
 1071 40 l 1,18,-1
 427 40 l 1,19,20
 133 31 133 31 137 275 c 1,21,-1
 137 995 l 2,22,23
 137 1244 137 1244 419 1244 c 2,24,-1
 1044 1244 l 2,25,26
 1302 1246 1302 1246 1302 997 c 2,27,-1
 1301 498 l 2,28,29
 1304 326 1304 326 1117 327 c 2,30,-1
 941 327 l 2,31,32
 845 330 845 330 847 398 c 1,33,-1
 845 423 l 1,34,35
 838 357 838 357 751 349 c 1,36,-1
 567 350 l 1,37,38
 425 357 425 357 417 504 c 1,39,-1
 418 820 l 1,40,41
 424 930 424 930 518 932 c 2,42,-1
 845 932 l 1,43,-1
 845 970 l 1,44,-1
 997 970 l 1,45,-1
 998 478 l 1,46,-1
 1046 478 l 2,47,48
 1109 478 1109 478 1109 556 c 2,49,-1
 1110 961 l 2,50,51
 1111 1084 1111 1084 990 1084 c 2,52,-1
 455 1083 l 2,11,12
EndSplineSet
EndChar

StartChar: numbersign
Encoding: 35 35 118
Width: 1285
Flags: W
LayerCount: 2
Fore
SplineSet
300 565 m 1,0,-1
 334 800 l 1,1,-1
 128 800 l 1,2,-1
 128 995 l 1,3,-1
 363 995 l 1,4,-1
 417 1364 l 1,5,-1
 612 1364 l 1,6,-1
 558 995 l 1,7,-1
 813 995 l 1,8,-1
 867 1364 l 1,9,-1
 1062 1364 l 1,10,-1
 1008 995 l 1,11,-1
 1224 995 l 1,12,-1
 1224 800 l 1,13,-1
 979 800 l 1,14,-1
 945 565 l 1,15,-1
 1154 565 l 1,16,-1
 1154 370 l 1,17,-1
 916 370 l 1,18,-1
 862 0 l 1,19,-1
 667 0 l 1,20,-1
 721 370 l 1,21,-1
 466 370 l 1,22,-1
 412 0 l 1,23,-1
 217 0 l 1,24,-1
 271 370 l 1,25,-1
 58 370 l 1,26,-1
 58 565 l 1,27,-1
 300 565 l 1,0,-1
529 800 m 1,28,-1
 495 565 l 1,29,-1
 750 565 l 1,30,-1
 784 800 l 1,31,-1
 529 800 l 1,28,-1
EndSplineSet
EndChar

StartChar: degree
Encoding: 176 176 119
Width: 770
Flags: W
LayerCount: 2
Fore
SplineSet
506 911 m 2,0,1
 562 911 562 911 562 966 c 2,2,-1
 562 1201 l 2,3,4
 562 1256 562 1256 511 1254 c 2,5,-1
 266 1255 l 2,6,7
 209 1255 209 1255 210 1200 c 2,8,-1
 210 967 l 2,9,10
 210 912 210 912 282 912 c 2,11,-1
 506 911 l 2,0,1
501 1374 m 2,12,13
 683 1371 683 1371 678 1208 c 1,14,-1
 677 940 l 2,15,16
 678 796 678 796 503 793 c 2,17,-1
 250 793 l 1,18,19
 94 798 94 798 93 941 c 2,20,-1
 93 1206 l 2,21,22
 94 1369 94 1369 261 1374 c 1,23,-1
 501 1374 l 2,12,13
EndSplineSet
EndChar

StartChar: plus
Encoding: 43 43 120
Width: 1286
Flags: W
LayerCount: 2
Fore
SplineSet
515 806 m 1,0,-1
 515 1170 l 1,1,-1
 763 1170 l 1,2,-1
 763 806 l 1,3,-1
 1126 806 l 1,4,-1
 1127 558 l 1,5,-1
 763 558 l 1,6,-1
 763 194 l 1,7,-1
 515 194 l 1,8,-1
 515 558 l 1,9,-1
 151 558 l 1,10,-1
 150 806 l 1,11,-1
 515 806 l 1,0,-1
EndSplineSet
EndChar

StartChar: divide
Encoding: 247 247 121
Width: 1286
Flags: W
LayerCount: 2
Fore
SplineSet
1126 558 m 1,0,-1
 150 558 l 1,1,-1
 150 806 l 1,2,-1
 1126 806 l 1,3,-1
 1126 558 l 1,0,-1
698 1206 m 2,4,5
 787 1204 787 1204 785 1125 c 2,6,-1
 785 994 l 2,7,8
 785 924 785 924 699 922 c 2,9,-1
 576 922 l 2,10,11
 499 924 499 924 499 995 c 2,12,-1
 499 1124 l 2,13,14
 499 1204 499 1204 581 1206 c 2,15,-1
 698 1206 l 2,4,5
698 446 m 2,16,17
 787 444 787 444 785 365 c 2,18,-1
 785 234 l 2,19,20
 785 164 785 164 699 162 c 2,21,-1
 576 162 l 2,22,23
 499 164 499 164 499 235 c 2,24,-1
 499 364 l 2,25,26
 499 444 499 444 581 446 c 2,27,-1
 698 446 l 2,16,17
EndSplineSet
EndChar

StartChar: equal
Encoding: 61 61 122
Width: 1286
Flags: W
LayerCount: 2
Fore
SplineSet
1136 748 m 1,0,-1
 160 748 l 1,1,-1
 160 996 l 1,2,-1
 1136 996 l 1,3,-1
 1136 748 l 1,0,-1
1136 358 m 1,4,-1
 160 358 l 1,5,-1
 160 606 l 1,6,-1
 1136 606 l 1,7,-1
 1136 358 l 1,4,-1
EndSplineSet
EndChar

StartChar: trademark
Encoding: 8482 8482 123
Width: 1693
Flags: W
LayerCount: 2
Fore
SplineSet
383 1233 m 1,0,-1
 383 587 l 1,1,-1
 236 587 l 1,2,-1
 236 1233 l 1,3,-1
 11 1233 l 1,4,-1
 11 1366 l 1,5,-1
 616 1366 l 1,6,-1
 616 1233 l 1,7,-1
 383 1233 l 1,0,-1
1145 751 m 1,8,-1
 897 1051 l 1,9,-1
 897 587 l 1,10,-1
 755 587 l 1,11,-1
 755 1367 l 1,12,-1
 889 1367 l 1,13,-1
 1185 945 l 1,14,-1
 1185 942 l 1,15,-1
 1186 945 l 1,16,-1
 1482 1367 l 1,17,-1
 1616 1367 l 1,18,-1
 1616 587 l 1,19,-1
 1474 587 l 1,20,-1
 1474 1051 l 1,21,-1
 1226 751 l 1,22,-1
 1145 751 l 1,8,-1
EndSplineSet
EndChar

StartChar: paragraph
Encoding: 182 182 124
Width: 1285
Flags: W
LayerCount: 2
Fore
SplineSet
858 -400 m 1,0,-1
 698 -400 l 1,1,-1
 698 543 l 1,2,-1
 305 543 l 1,3,4
 63 551 63 551 57 724 c 1,5,-1
 57 1179 l 2,6,7
 55 1364 55 1364 300 1364 c 2,8,-1
 1139 1364 l 1,9,-1
 1142 1363 l 1,10,-1
 1142 -400 l 1,11,-1
 1015 -400 l 1,12,-1
 1015 1174 l 1,13,-1
 858 1174 l 1,14,-1
 858 -400 l 1,0,-1
EndSplineSet
EndChar

StartChar: currency
Encoding: 164 164 125
Width: 1418
Flags: W
LayerCount: 2
Fore
SplineSet
916 416 m 2,0,1
 1010 416 1010 416 1010 510 c 2,2,-1
 1010 909 l 2,3,4
 1010 1004 1010 1004 916 1004 c 2,5,-1
 507 1002 l 2,6,7
 410 1002 410 1002 412 907 c 2,8,-1
 412 512 l 2,9,10
 412 418 412 418 534 418 c 2,11,-1
 916 416 l 2,0,1
1041 1184 m 1,12,-1
 1194 1336 l 1,13,-1
 1333 1196 l 1,14,-1
 1188 1053 l 1,15,16
 1210 997 1210 997 1208 921 c 2,17,-1
 1207 466 l 2,18,19
 1207 416 1207 416 1195 375 c 1,20,-1
 1333 239 l 1,21,-1
 1194 99 l 1,22,-1
 1054 238 l 1,23,24
 994 218 994 218 910 216 c 2,25,-1
 480 216 l 2,26,27
 412 218 412 218 361 235 c 1,28,-1
 223 99 l 1,29,-1
 85 239 l 1,30,-1
 225 377 l 1,31,32
 213 418 213 418 213 468 c 2,33,-1
 213 918 l 2,34,35
 213 993 213 993 234 1048 c 1,36,-1
 85 1196 l 1,37,-1
 223 1336 l 1,38,-1
 377 1184 l 1,39,40
 430 1202 430 1202 499 1204 c 2,41,-1
 906 1204 l 2,42,43
 983 1203 983 1203 1041 1184 c 1,12,-1
EndSplineSet
EndChar

StartChar: quotesinglbase
Encoding: 8218 8218 126
Width: 459
Flags: W
LayerCount: 2
Fore
SplineSet
225 0 m 1,0,-1
 109 0 l 1,1,-1
 109 214 l 1,2,-1
 342 214 l 1,3,-1
 342 0 l 1,4,-1
 341 0 l 1,5,-1
 341 -5 l 2,6,7
 342 -231 342 -231 135 -235 c 1,8,-1
 94 -235 l 1,9,-1
 94 -114 l 1,10,11
 221 -121 221 -121 225 0 c 1,0,-1
EndSplineSet
EndChar

StartChar: quoteright
Encoding: 8217 8217 127
Width: 459
Flags: W
LayerCount: 2
Fore
SplineSet
232 1150 m 1,0,-1
 116 1150 l 1,1,-1
 116 1364 l 1,2,-1
 349 1364 l 1,3,-1
 349 1150 l 1,4,-1
 348 1150 l 1,5,-1
 348 1145 l 2,6,7
 349 919 349 919 142 915 c 1,8,-1
 101 915 l 1,9,-1
 101 1036 l 1,10,11
 228 1029 228 1029 232 1150 c 1,0,-1
EndSplineSet
EndChar

StartChar: braceleft
Encoding: 123 123 128
Width: 783
Flags: W
LayerCount: 2
Fore
SplineSet
223 681 m 1,0,-1
 223 1254 l 2,1,2
 223 1365 223 1365 348 1365 c 2,3,-1
 651 1365 l 1,4,-1
 650 1164 l 1,5,-1
 469 1164 l 1,6,-1
 469 -198 l 1,7,-1
 652 -198 l 1,8,-1
 653 -408 l 1,9,-1
 349 -408 l 1,10,11
 223 -396 223 -396 223 -282 c 2,12,-1
 223 276 l 1,13,-1
 127 276 l 1,14,-1
 127 681 l 1,15,-1
 223 681 l 1,0,-1
EndSplineSet
EndChar

StartChar: braceright
Encoding: 125 125 129
Width: 784
Flags: W
LayerCount: 2
Fore
SplineSet
653 681 m 1,0,-1
 653 276 l 1,1,-1
 557 276 l 1,2,-1
 557 -282 l 2,3,4
 557 -396 557 -396 431 -408 c 1,5,-1
 127 -408 l 1,6,-1
 128 -198 l 1,7,-1
 311 -198 l 1,8,-1
 311 1164 l 1,9,-1
 130 1164 l 1,10,-1
 129 1365 l 1,11,-1
 432 1365 l 2,12,13
 557 1365 557 1365 557 1254 c 2,14,-1
 557 681 l 1,15,-1
 653 681 l 1,0,-1
EndSplineSet
EndChar

StartChar: ordfeminine
Encoding: 170 170 130
Width: 857
Flags: W
LayerCount: 2
Fore
SplineSet
328 900 m 1,1,-1
 465 900 l 1,2,3
 544 905 544 905 545 979 c 2,4,-1
 545 1028 l 1,5,-1
 329 1028 l 2,6,7
 280 1027 280 1027 277 984 c 2,8,-1
 277 948 l 1,9,0
 281 907 281 907 328 900 c 1,1,-1
191 1262 m 2,10,11
 191 1360 191 1360 298 1364 c 1,12,-1
 544 1364 l 1,13,14
 664 1357 664 1357 671 1212 c 1,15,-1
 671 798 l 1,16,-1
 543 798 l 1,17,-1
 543 858 l 1,18,19
 540 804 540 804 464 797 c 1,20,-1
 308 797 l 1,21,22
 171 803 171 803 160 913 c 1,23,-1
 159 989 l 1,24,25
 164 1130 164 1130 295 1132 c 2,26,-1
 545 1131 l 1,27,-1
 545 1189 l 1,28,29
 550 1253 550 1253 486 1251 c 2,30,-1
 354 1251 l 2,31,32
 306 1250 306 1250 308 1210 c 2,33,-1
 308 1190 l 1,34,-1
 190 1190 l 1,35,-1
 191 1262 l 2,10,11
712 751 m 1,36,-1
 712 629 l 1,37,-1
 123 629 l 1,38,-1
 123 751 l 1,39,-1
 712 751 l 1,36,-1
EndSplineSet
EndChar

StartChar: ordmasculine
Encoding: 186 186 131
Width: 857
Flags: W
LayerCount: 2
Fore
SplineSet
712 751 m 1,0,-1
 712 629 l 1,1,-1
 123 629 l 1,2,-1
 123 751 l 1,3,-1
 712 751 l 1,0,-1
502 914 m 2,4,5
 567 916 567 916 567 978 c 2,6,-1
 567 1215 l 2,7,8
 564 1280 564 1280 495 1280 c 2,9,-1
 319 1281 l 2,10,11
 249 1281 249 1281 247 1215 c 2,12,-1
 247 978 l 2,13,14
 247 917 247 917 311 913 c 1,15,-1
 502 914 l 2,4,5
314 820 m 2,16,17
 130 820 130 820 132 964 c 2,18,-1
 132 1224 l 2,19,20
 132 1375 132 1375 313 1374 c 2,21,-1
 502 1374 l 2,22,23
 682 1375 682 1375 682 1223 c 2,24,-1
 683 964 l 2,25,26
 683 819 683 819 499 819 c 2,27,-1
 314 820 l 2,16,17
EndSplineSet
EndChar

StartChar: plusminus
Encoding: 177 177 132
Width: 1285
Flags: W
LayerCount: 2
Fore
SplineSet
515 986 m 1,0,-1
 515 1350 l 1,1,-1
 763 1350 l 1,2,-1
 763 986 l 1,3,-1
 1126 986 l 1,4,-1
 1127 738 l 1,5,-1
 763 738 l 1,6,-1
 763 374 l 1,7,-1
 515 374 l 1,8,-1
 515 738 l 1,9,-1
 151 738 l 1,10,-1
 150 986 l 1,11,-1
 515 986 l 1,0,-1
1124 312 m 1,12,-1
 1125 64 l 1,13,-1
 149 64 l 1,14,-1
 148 312 l 1,15,-1
 1124 312 l 1,12,-1
EndSplineSet
EndChar

StartChar: fraction
Encoding: 8725 8725 133
Width: 337
Flags: W
LayerCount: 2
Fore
SplineSet
636 1368 m 1,0,-1
 638 1273 l 1,1,-1
 -208 -59 l 1,2,-1
 -351 -58 l 1,3,-1
 -351 42 l 1,4,-1
 488 1368 l 1,5,-1
 636 1368 l 1,0,-1
636 1368 m 1,6,-1
 638 1273 l 1,7,-1
 -208 -59 l 1,8,-1
 -351 -58 l 1,9,-1
 -351 42 l 1,10,-1
 488 1368 l 1,11,-1
 636 1368 l 1,6,-1
EndSplineSet
EndChar

StartChar: percent
Encoding: 37 37 134
Width: 1633
Flags: W
LayerCount: 2
Fore
SplineSet
229 682 m 1,0,1
 58 689 58 689 60 827 c 2,2,-1
 60 1221 l 2,3,4
 60 1368 60 1368 229 1373 c 1,5,-1
 437 1373 l 2,6,7
 613 1370 613 1370 613 1220 c 2,8,-1
 614 826 l 2,9,10
 614 685 614 685 436 682 c 2,11,-1
 229 682 l 1,0,1
229 1265 m 1,12,13
 188 1252 188 1252 186 1202 c 2,14,-1
 186 852 l 2,15,16
 186 802 186 802 229 790 c 1,17,-1
 437 790 l 1,18,19
 486 797 486 797 486 852 c 2,20,-1
 486 1201 l 2,21,22
 484 1256 484 1256 436 1266 c 1,23,-1
 229 1265 l 1,12,13
1179 -7 m 1,24,25
 1008 0 1008 0 1010 137 c 2,26,-1
 1010 531 l 2,27,28
 1010 678 1010 678 1179 683 c 1,29,-1
 1387 683 l 2,30,31
 1563 680 1563 680 1563 530 c 2,32,-1
 1564 136 l 2,33,34
 1564 -4 1564 -4 1386 -8 c 1,35,-1
 1179 -7 l 1,24,25
1179 575 m 1,36,37
 1138 562 1138 562 1136 512 c 2,38,-1
 1136 162 l 2,39,40
 1136 112 1136 112 1179 100 c 1,41,-1
 1387 100 l 1,42,43
 1436 107 1436 107 1436 162 c 2,44,-1
 1436 511 l 2,45,46
 1434 566 1434 566 1386 576 c 1,47,-1
 1179 575 l 1,36,37
1300 1382 m 1,48,-1
 1302 1287 l 1,49,-1
 456 -45 l 1,50,-1
 313 -44 l 1,51,-1
 313 56 l 1,52,-1
 1152 1382 l 1,53,-1
 1300 1382 l 1,48,-1
EndSplineSet
EndChar

StartChar: perthousand
Encoding: 8240 8240 135
Width: 2361
Flags: W
LayerCount: 2
Fore
SplineSet
229 682 m 1,0,1
 58 689 58 689 60 827 c 2,2,-1
 60 1221 l 2,3,4
 60 1368 60 1368 229 1373 c 1,5,-1
 437 1373 l 2,6,7
 613 1370 613 1370 613 1220 c 2,8,-1
 614 826 l 2,9,10
 614 685 614 685 436 682 c 2,11,-1
 229 682 l 1,0,1
229 1265 m 1,12,13
 188 1252 188 1252 186 1202 c 2,14,-1
 186 852 l 2,15,16
 186 802 186 802 229 790 c 1,17,-1
 437 790 l 1,18,19
 486 797 486 797 486 852 c 2,20,-1
 486 1201 l 2,21,22
 484 1256 484 1256 436 1266 c 1,23,-1
 229 1265 l 1,12,13
1179 -7 m 1,24,25
 1008 0 1008 0 1010 137 c 2,26,-1
 1010 531 l 2,27,28
 1010 678 1010 678 1179 683 c 1,29,-1
 1387 683 l 2,30,31
 1563 680 1563 680 1563 530 c 2,32,-1
 1564 136 l 2,33,34
 1564 -4 1564 -4 1386 -8 c 1,35,-1
 1179 -7 l 1,24,25
1179 575 m 1,36,37
 1138 562 1138 562 1136 512 c 2,38,-1
 1136 162 l 2,39,40
 1136 112 1136 112 1179 100 c 1,41,-1
 1387 100 l 1,42,43
 1436 107 1436 107 1436 162 c 2,44,-1
 1436 511 l 2,45,46
 1434 566 1434 566 1386 576 c 1,47,-1
 1179 575 l 1,36,37
1300 1382 m 1,48,-1
 1302 1287 l 1,49,-1
 456 -45 l 1,50,-1
 313 -44 l 1,51,-1
 313 56 l 1,52,-1
 1152 1382 l 1,53,-1
 1300 1382 l 1,48,-1
1909 -7 m 1,54,55
 1738 0 1738 0 1740 137 c 2,56,-1
 1740 531 l 2,57,58
 1740 678 1740 678 1909 683 c 1,59,-1
 2117 683 l 2,60,61
 2293 680 2293 680 2293 530 c 2,62,-1
 2294 136 l 2,63,64
 2294 -4 2294 -4 2116 -8 c 1,65,-1
 1909 -7 l 1,54,55
1909 575 m 1,66,67
 1868 562 1868 562 1866 512 c 2,68,-1
 1866 162 l 2,69,70
 1866 112 1866 112 1909 100 c 1,71,-1
 2117 100 l 1,72,73
 2166 107 2166 107 2166 162 c 2,74,-1
 2166 511 l 2,75,76
 2164 566 2164 566 2116 576 c 1,77,-1
 1909 575 l 1,66,67
EndSplineSet
EndChar

StartChar: backslash
Encoding: 92 92 136
Width: 1243
Flags: W
LayerCount: 2
Fore
SplineSet
75 1368 m 1,0,-1
 1072 -303 l 1,1,-1
 1072 -406 l 1,2,-1
 929 -405 l 1,3,-1
 -75 1273 l 1,4,-1
 -73 1368 l 1,5,-1
 75 1368 l 1,0,-1
EndSplineSet
EndChar

StartChar: dieresis
Encoding: 168 168 137
Width: 1024
Flags: W
LayerCount: 2
Fore
SplineSet
401 1290 m 1,0,-1
 401 1110 l 1,1,-1
 202 1110 l 1,2,-1
 202 1290 l 1,3,-1
 401 1290 l 1,0,-1
820 1290 m 1,4,-1
 820 1110 l 1,5,-1
 621 1110 l 1,6,-1
 621 1290 l 1,7,-1
 820 1290 l 1,4,-1
EndSplineSet
EndChar

StartChar: dotaccent
Encoding: 729 729 138
Width: 1020
Flags: W
LayerCount: 2
Fore
SplineSet
607 1290 m 1,0,-1
 607 1110 l 1,1,-1
 408 1110 l 1,2,-1
 408 1290 l 1,3,-1
 607 1290 l 1,0,-1
EndSplineSet
EndChar

StartChar: ring
Encoding: 730 730 139
Width: 1024
Flags: W
LayerCount: 2
Fore
SplineSet
574 1127 m 2,0,1
 601 1127 601 1127 601 1154 c 2,2,-1
 601 1270 l 2,3,4
 601 1297 601 1297 576 1296 c 2,5,-1
 455 1296 l 2,6,7
 427 1296 427 1296 428 1269 c 2,8,-1
 428 1155 l 2,9,10
 428 1128 428 1128 463 1128 c 2,11,-1
 574 1127 l 2,0,1
579 1374 m 2,12,13
 681 1372 681 1372 678 1281 c 2,14,-1
 678 1132 l 2,15,16
 678 1051 678 1051 580 1049 c 2,17,-1
 439 1049 l 2,18,19
 351 1052 351 1052 351 1132 c 2,20,-1
 351 1280 l 2,21,22
 351 1371 351 1371 445 1374 c 2,23,-1
 579 1374 l 2,12,13
EndSplineSet
EndChar

StartChar: acute
Encoding: 180 180 140
Width: 1024
Flags: W
LayerCount: 2
Fore
SplineSet
377 1045 m 1,0,-1
 321 1137 l 1,1,-1
 647 1366 l 1,2,-1
 749 1204 l 1,3,-1
 377 1045 l 1,0,-1
EndSplineSet
EndChar

StartChar: grave
Encoding: 96 96 141
Width: 1024
Flags: W
LayerCount: 2
Fore
SplineSet
243 1205 m 1,0,-1
 344 1366 l 1,1,-1
 671 1138 l 1,2,-1
 615 1046 l 1,3,-1
 243 1205 l 1,0,-1
EndSplineSet
EndChar

StartChar: circumflex
Encoding: 710 710 142
Width: 1024
Flags: W
LayerCount: 2
Fore
SplineSet
260 1061 m 1,0,-1
 223 1061 l 1,1,-1
 223 1158 l 1,2,-1
 482 1351 l 1,3,-1
 538 1351 l 1,4,-1
 797 1160 l 1,5,-1
 797 1063 l 1,6,-1
 760 1063 l 1,7,-1
 509 1248 l 1,8,-1
 260 1061 l 1,0,-1
EndSplineSet
EndChar

StartChar: caron
Encoding: 711 711 143
Width: 1024
Flags: W
LayerCount: 2
Fore
SplineSet
509 1164 m 1,0,-1
 760 1349 l 1,1,-1
 797 1349 l 1,2,-1
 797 1252 l 1,3,-1
 538 1061 l 1,4,-1
 482 1061 l 1,5,-1
 223 1254 l 1,6,-1
 223 1351 l 1,7,-1
 260 1351 l 1,8,-1
 509 1164 l 1,0,-1
EndSplineSet
EndChar

StartChar: breve
Encoding: 728 728 144
Width: 1024
Flags: W
LayerCount: 2
Fore
SplineSet
446 1336 m 1,0,-1
 574 1336 l 1,1,2
 568 1227 568 1227 490 1148 c 0,3,4
 405 1063 405 1063 285 1063 c 0,5,6
 164 1063 164 1063 79 1148 c 0,7,8
 0 1227 0 1227 -6 1336 c 1,9,-1
 122 1336 l 1,10,11
 128 1280 128 1280 169 1239 c 0,12,13
 217 1191 217 1191 285 1191 c 0,14,15
 352 1191 352 1191 399 1239 c 0,16,17
 440 1280 440 1280 446 1336 c 1,0,-1
EndSplineSet
EndChar

StartChar: tilde
Encoding: 732 732 145
Width: 1024
Flags: W
LayerCount: 2
Fore
SplineSet
432 1176 m 2,0,1
 401 1197 401 1197 375 1176 c 2,2,-1
 215 1056 l 1,3,-1
 173 1056 l 1,4,-1
 173 1174 l 1,5,-1
 350 1307 l 1,6,7
 403 1337 403 1337 450 1311 c 2,8,-1
 634 1191 l 2,9,10
 649 1178 649 1178 672 1202 c 2,11,-1
 797 1308 l 2,12,13
 832 1334 832 1334 850 1325 c 1,14,-1
 851 1201 l 1,15,-1
 699 1056 l 1,16,17
 656 1033 656 1033 613 1056 c 1,18,-1
 432 1176 l 2,0,1
EndSplineSet
EndChar

StartChar: hungarumlaut
Encoding: 733 733 146
Width: 1024
Flags: W
LayerCount: 2
Fore
SplineSet
632 1046 m 1,0,-1
 554 1120 l 1,1,-1
 825 1368 l 1,2,-1
 965 1239 l 1,3,-1
 632 1046 l 1,0,-1
302 1046 m 1,4,-1
 224 1120 l 1,5,-1
 495 1368 l 1,6,-1
 635 1239 l 1,7,-1
 302 1046 l 1,4,-1
EndSplineSet
EndChar

StartChar: cedilla
Encoding: 184 184 147
Width: 1024
Flags: W
LayerCount: 2
Fore
SplineSet
425 -332 m 1,0,-1
 368 -277 l 1,1,-1
 567 -95 l 1,2,-1
 670 -190 l 1,3,-1
 425 -332 l 1,0,-1
EndSplineSet
EndChar

StartChar: ogonek
Encoding: 731 731 148
Width: 1024
Flags: W
LayerCount: 2
Fore
SplineSet
792 -228 m 1,1,-1
 792 -349 l 1,2,3
 513 -309 513 -309 545 -119 c 0,4,5
 555 -52 555 -52 634 0 c 1,6,-1
 757 0 l 1,7,8
 625 -67 625 -67 645 -151 c 128,-1,0
 665 -235 665 -235 792 -228 c 1,1,-1
EndSplineSet
EndChar

StartChar: macron
Encoding: 713 713 149
Width: 1023
Flags: W
LayerCount: 2
Fore
SplineSet
783 1289 m 1,0,-1
 783 1113 l 1,1,-1
 241 1113 l 1,2,-1
 241 1289 l 1,3,-1
 783 1289 l 1,0,-1
EndSplineSet
EndChar

StartChar: copyright
Encoding: 169 169 150
Width: 1527
Flags: W
LayerCount: 2
Fore
SplineSet
954 1094 m 1,0,1
 1109 1089 1109 1089 1109 939 c 2,2,-1
 1109 849 l 1,3,-1
 949 849 l 1,4,-1
 949 873 l 2,5,6
 948 932 948 932 874 932 c 2,7,-1
 648 932 l 2,8,9
 575 932 575 932 572 856 c 2,10,-1
 572 536 l 2,11,12
 572 460 572 460 648 460 c 2,13,-1
 888 460 l 2,14,15
 973 458 973 458 968 535 c 1,16,-1
 968 540 l 1,17,-1
 1128 540 l 1,18,-1
 1128 452 l 2,19,20
 1128 301 1128 301 973 300 c 2,21,-1
 567 300 l 2,22,23
 411 303 411 303 411 453 c 2,24,-1
 411 939 l 2,25,26
 411 1089 411 1089 567 1094 c 1,27,-1
 954 1094 l 1,0,1
1254.5 1172.5 m 128,-1,29
 1458 969 1458 969 1458 681 c 256,30,31
 1458 393 1458 393 1254.5 189.5 c 128,-1,32
 1051 -14 1051 -14 763 -14 c 256,33,34
 475 -14 475 -14 271.5 189.5 c 128,-1,35
 68 393 68 393 68 681 c 256,36,37
 68 969 68 969 271.5 1172.5 c 128,-1,38
 475 1376 475 1376 763 1376 c 256,39,28
 1051 1376 1051 1376 1254.5 1172.5 c 128,-1,29
763 1271 m 256,40,41
 519 1271 519 1271 346 1098.5 c 128,-1,42
 173 926 173 926 173 681 c 0,43,44
 173 437 173 437 346 264 c 128,-1,45
 519 91 519 91 763 91 c 256,46,47
 1007 91 1007 91 1180 264 c 128,-1,48
 1353 437 1353 437 1353 681 c 0,49,50
 1353 926 1353 926 1180 1098.5 c 128,-1,51
 1007 1271 1007 1271 763 1271 c 256,40,41
EndSplineSet
EndChar

StartChar: registered
Encoding: 174 174 151
Width: 1527
Flags: W
LayerCount: 2
Fore
SplineSet
877 728 m 1,0,1
 904 733 904 733 907 759 c 2,2,-1
 907 922 l 2,3,4
 907 958 907 958 873 961 c 2,5,-1
 588 961 l 1,6,-1
 588 728 l 1,7,-1
 877 728 l 1,0,1
589 610 m 1,8,-1
 589 302 l 1,9,-1
 444 302 l 1,10,-1
 444 1078 l 1,11,-1
 446 1079 l 1,12,-1
 913 1079 l 2,13,14
 1052 1079 1052 1079 1051 974 c 2,15,-1
 1051 771 l 2,16,17
 1048 686 1048 686 945 671 c 1,18,19
 975 663 975 663 1000 649 c 0,20,21
 1070 612 1070 612 1069 506 c 2,22,-1
 1069 301 l 1,23,-1
 929 301 l 1,24,-1
 929 538 l 1,25,26
 933 612 933 612 855 610 c 2,27,-1
 589 610 l 1,8,-1
1254.5 1172.5 m 128,-1,29
 1458 969 1458 969 1458 681 c 256,30,31
 1458 393 1458 393 1254.5 189.5 c 128,-1,32
 1051 -14 1051 -14 763 -14 c 256,33,34
 475 -14 475 -14 271.5 189.5 c 128,-1,35
 68 393 68 393 68 681 c 256,36,37
 68 969 68 969 271.5 1172.5 c 128,-1,38
 475 1376 475 1376 763 1376 c 256,39,28
 1051 1376 1051 1376 1254.5 1172.5 c 128,-1,29
763 1271 m 256,40,41
 519 1271 519 1271 346 1098.5 c 128,-1,42
 173 926 173 926 173 681 c 0,43,44
 173 437 173 437 346 264 c 128,-1,45
 519 91 519 91 763 91 c 256,46,47
 1007 91 1007 91 1180 264 c 128,-1,48
 1353 437 1353 437 1353 681 c 0,49,50
 1353 926 1353 926 1180 1098.5 c 128,-1,51
 1007 1271 1007 1271 763 1271 c 256,40,41
EndSplineSet
EndChar

StartChar: bullet
Encoding: 8226 8226 152
Width: 568
Flags: W
LayerCount: 2
Fore
SplineSet
338 407 m 2,0,1
 573 405 573 405 573 625 c 2,2,-1
 574 760 l 2,3,4
 573 980 573 980 335 978 c 2,5,-1
 235 978 l 2,6,7
 4 979 4 979 6 760 c 2,8,-1
 6 625 l 2,9,10
 6 408 6 408 235 407 c 2,11,-1
 338 407 l 2,0,1
EndSplineSet
EndChar

StartChar: lozenge
Encoding: 9674 9674 153
Width: 1063
Flags: W
LayerCount: 2
Fore
SplineSet
483 1354 m 1,0,1
 535 1412 535 1412 580 1354 c 2,2,-1
 1016 765 l 2,3,4
 1080 682 1080 682 1026 615 c 2,5,-1
 579 11 l 2,6,7
 533 -47 533 -47 481 15 c 1,8,-1
 38 613 l 2,9,10
 -15 685 -15 685 46 763 c 2,11,-1
 483 1354 l 1,0,1
558 1013 m 2,12,13
 533 1045 533 1045 510 1013 c 2,14,-1
 275 707 l 1,15,16
 260 674 260 674 281 646 c 2,17,-1
 510 353 l 2,18,19
 536 320 536 320 557 354 c 1,20,-1
 781 642 l 2,21,22
 806 679 806 679 786 713 c 1,23,-1
 558 1013 l 2,12,13
EndSplineSet
EndChar

StartChar: Delta
Encoding: 8710 8710 154
Width: 1284
Flags: W
LayerCount: 2
Fore
SplineSet
79 0 m 2,0,1
 -2 3 -2 3 30 82 c 2,2,-1
 489 1300 l 2,3,4
 512 1365 512 1365 639 1365 c 1,5,6
 761 1370 761 1370 786 1304 c 2,7,-1
 1255 80 l 1,8,9
 1274 -1 1274 -1 1208 0 c 2,10,-1
 79 0 l 2,0,1
391 218 m 2,12,-1
 880 218 l 2,13,14
 950 218 950 218 920 301 c 2,15,-1
 661 1026 l 2,16,17
 640 1088 640 1088 618 1023 c 2,18,-1
 359 299 l 2,19,11
 328 218 328 218 391 218 c 2,12,-1
EndSplineSet
EndChar

StartChar: notequal
Encoding: 8800 8800 155
Width: 888
Flags: W
LayerCount: 2
Fore
SplineSet
693 1004 m 1,0,-1
 934 1004 l 1,1,-1
 934 756 l 1,2,-1
 574 756 l 1,3,-1
 505 614 l 1,4,-1
 934 614 l 1,5,-1
 934 366 l 1,6,-1
 385 366 l 1,7,-1
 324 238 l 1,8,-1
 103 239 l 1,9,-1
 164 366 l 1,10,-1
 -41 366 l 1,11,-1
 -42 614 l 1,12,-1
 284 614 l 1,13,-1
 353 756 l 1,14,-1
 -41 756 l 1,15,-1
 -42 1004 l 1,16,-1
 473 1004 l 1,17,-1
 557 1181 l 1,18,-1
 779 1181 l 1,19,-1
 693 1004 l 1,0,-1
EndSplineSet
EndChar

StartChar: radical
Encoding: 8730 8730 156
Width: 1365
Flags: W
LayerCount: 2
Fore
SplineSet
1465 1701 m 1,0,-1
 1365 1488 l 1,1,-1
 1038 1488 l 2,2,3
 992 1491 992 1491 976 1438 c 2,4,-1
 640 72 l 2,5,6
 621 0 621 0 555 0 c 2,7,-1
 371 0 l 1,8,9
 314 -4 314 -4 298 82 c 2,10,-1
 186 568 l 1,11,-1
 0 568 l 1,12,-1
 100 786 l 1,13,-1
 303 786 l 1,14,15
 381 773 381 773 399 707 c 1,16,-1
 458 308 l 1,17,-1
 461 281 l 1,18,-1
 479 281 l 1,19,-1
 774 1631 l 1,20,21
 797 1703 797 1703 864 1701 c 2,22,-1
 1465 1701 l 1,0,-1
EndSplineSet
EndChar

StartChar: integral
Encoding: 8747 8747 157
Width: 765
Flags: W
LayerCount: 2
Fore
SplineSet
266 1268 m 1,0,1
 306 1542 306 1542 613 1538 c 1,2,-1
 768 1538 l 1,3,-1
 705 1349 l 1,4,-1
 626 1349 l 2,5,6
 532 1346 532 1346 501 1220 c 1,7,-1
 507 -199 l 2,8,9
 507 -470 507 -470 156 -470 c 2,10,-1
 -98 -470 l 1,11,-1
 -37 -281 l 1,12,-1
 141 -281 l 1,13,14
 235 -277 235 -277 267 -152 c 1,15,-1
 266 1268 l 1,0,1
EndSplineSet
EndChar

StartChar: approxequal
Encoding: 8776 8776 158
Width: 993
Flags: W
LayerCount: 2
Fore
SplineSet
380 896 m 2,0,1
 335 926 335 926 297 896 c 2,2,-1
 62 720 l 1,3,-1
 1 720 l 1,4,-1
 1 893 l 1,5,-1
 261 1087 l 1,6,7
 339 1131 339 1131 406 1093 c 1,8,-1
 676 918 l 1,9,10
 699 898 699 898 732 933 c 1,11,-1
 915 1088 l 2,12,13
 966 1126 966 1126 993 1113 c 1,14,-1
 994 932 l 1,15,-1
 771 720 l 1,16,17
 709 686 709 686 646 720 c 1,18,-1
 380 896 l 2,0,1
380 536 m 2,19,20
 335 566 335 566 297 536 c 2,21,-1
 62 360 l 1,22,-1
 1 360 l 1,23,-1
 1 533 l 1,24,-1
 261 727 l 1,25,26
 339 771 339 771 406 733 c 1,27,-1
 676 558 l 1,28,29
 699 538 699 538 732 573 c 1,30,-1
 915 728 l 2,31,32
 966 766 966 766 993 753 c 1,33,-1
 994 572 l 1,34,-1
 771 360 l 1,35,36
 709 326 709 326 646 360 c 1,37,-1
 380 536 l 2,19,20
EndSplineSet
EndChar

StartChar: less
Encoding: 60 60 159
Width: 887
Flags: W
LayerCount: 2
Fore
SplineSet
339 694 m 1,0,-1
 886 244 l 1,1,-1
 886 155 l 1,2,-1
 626 155 l 1,3,-1
 65 621 l 1,4,-1
 65 766 l 1,5,-1
 626 1232 l 1,6,-1
 886 1232 l 1,7,-1
 886 1143 l 1,8,-1
 339 694 l 1,0,-1
EndSplineSet
EndChar

StartChar: greater
Encoding: 62 62 160
Width: 887
Flags: W
LayerCount: 2
Fore
SplineSet
0 1143 m 1,0,-1
 0 1232 l 1,1,-1
 260 1232 l 1,2,-1
 821 766 l 1,3,-1
 821 621 l 1,4,-1
 260 155 l 1,5,-1
 0 155 l 1,6,-1
 0 244 l 1,7,-1
 547 694 l 1,8,-1
 0 1143 l 1,0,-1
EndSplineSet
EndChar

StartChar: lessequal
Encoding: 8804 8804 161
Width: 887
Flags: W
LayerCount: 2
Fore
SplineSet
298 826 m 1,0,-1
 845 376 l 1,1,-1
 845 287 l 1,2,-1
 585 287 l 1,3,-1
 24 753 l 1,4,-1
 24 898 l 1,5,-1
 585 1364 l 1,6,-1
 845 1364 l 1,7,-1
 845 1275 l 1,8,-1
 298 826 l 1,0,-1
888 253 m 1,9,-1
 889 24 l 1,10,-1
 -4 24 l 1,11,-1
 -5 253 l 1,12,-1
 888 253 l 1,9,-1
EndSplineSet
EndChar

StartChar: greaterequal
Encoding: 8805 8805 162
Width: 887
Flags: W
LayerCount: 2
Fore
SplineSet
39 1275 m 1,0,-1
 39 1364 l 1,1,-1
 299 1364 l 1,2,-1
 860 898 l 1,3,-1
 860 753 l 1,4,-1
 299 287 l 1,5,-1
 39 287 l 1,6,-1
 39 376 l 1,7,-1
 586 826 l 1,8,-1
 39 1275 l 1,0,-1
889 253 m 1,9,-1
 888 24 l 1,10,-1
 -5 24 l 1,11,-1
 -4 253 l 1,12,-1
 889 253 l 1,9,-1
EndSplineSet
EndChar

StartChar: logicalnot
Encoding: 172 172 163
Width: 887
Flags: W
LayerCount: 2
Fore
SplineSet
660 327 m 1,0,-1
 -3 327 l 1,1,-1
 -4 556 l 1,2,-1
 888 556 l 1,3,-1
 889 407 l 1,4,-1
 889 327 l 1,5,-1
 888 0 l 1,6,-1
 659 0 l 1,7,-1
 660 327 l 1,0,-1
EndSplineSet
EndChar

StartChar: infinity
Encoding: 8734 8734 164
Width: 1295
Flags: W
LayerCount: 2
Fore
SplineSet
521 797 m 1,0,1
 514 859 514 859 458 859 c 2,2,-1
 242 859 l 1,3,4
 186 851 186 851 186 781 c 2,5,-1
 185 612 l 2,6,7
 185 542 185 542 242 534 c 1,8,-1
 458 534 l 2,9,10
 520 534 520 534 520 597 c 2,11,-1
 521 797 l 1,0,1
780 597 m 2,12,13
 780 534 780 534 842 534 c 2,14,-1
 1058 534 l 1,15,16
 1115 542 1115 542 1115 612 c 2,17,-1
 1114 781 l 2,18,19
 1114 851 1114 851 1058 859 c 1,20,-1
 842 859 l 2,21,22
 786 859 786 859 779 797 c 1,23,-1
 780 597 l 2,12,13
655 394 m 1,24,25
 633 316 633 316 527 321 c 1,26,-1
 208 321 l 2,27,28
 7 321 7 321 9 557 c 2,29,-1
 9 817 l 2,30,31
 7 1052 7 1052 208 1052 c 2,32,-1
 527 1052 l 1,33,34
 633 1057 633 1057 655 979 c 1,35,36
 677 1057 677 1057 783 1052 c 1,37,-1
 1102 1052 l 2,38,39
 1303 1052 1303 1052 1301 817 c 2,40,-1
 1301 557 l 2,41,42
 1303 321 1303 321 1102 321 c 2,43,-1
 783 321 l 1,44,45
 677 316 677 316 655 394 c 1,24,25
EndSplineSet
EndChar

StartChar: product
Encoding: 8719 8719 165
Width: 1320
Flags: W
LayerCount: 2
Fore
SplineSet
413 -254 m 1,0,-1
 554 -255 l 1,1,-1
 554 -510 l 1,2,-1
 -3 -511 l 1,3,-1
 -4 -254 l 1,4,-1
 156 -254 l 1,5,-1
 158 1279 l 1,6,-1
 0 1279 l 1,7,-1
 -1 1536 l 1,8,-1
 1318 1536 l 1,9,-1
 1318 1281 l 1,10,-1
 1163 1281 l 1,11,-1
 1163 -254 l 1,12,-1
 1314 -255 l 1,13,-1
 1314 -510 l 1,14,-1
 757 -511 l 1,15,-1
 756 -254 l 1,16,-1
 906 -254 l 1,17,-1
 908 1280 l 1,18,-1
 413 1280 l 1,19,-1
 413 -254 l 1,0,-1
EndSplineSet
EndChar

StartChar: summation
Encoding: 8721 8721 166
Width: 1227
Flags: W
LayerCount: 2
Fore
SplineSet
967 -254 m 1,0,-1
 967 -10 l 1,1,-1
 1222 -10 l 1,2,-1
 1222 -510 l 1,3,-1
 -2 -511 l 1,4,-1
 -4 -254 l 1,5,-1
 1 -254 l 1,6,-1
 1 -235 l 1,7,-1
 548 515 l 1,8,-1
 1 1264 l 1,9,-1
 1 1279 l 1,10,-1
 -2 1279 l 1,11,-1
 -4 1536 l 1,12,-1
 1224 1535 l 1,13,-1
 1224 1043 l 1,14,-1
 967 1042 l 1,15,-1
 967 1280 l 1,16,-1
 315 1279 l 1,17,-1
 822 587 l 1,18,-1
 822 442 l 1,19,-1
 312 -254 l 1,20,-1
 967 -254 l 1,0,-1
EndSplineSet
EndChar

StartChar: partialdiff
Encoding: 8706 8706 167
Width: 939
Flags: W
LayerCount: 2
Fore
SplineSet
315 669 m 1,0,1
 269 663 269 663 263 616 c 1,2,-1
 263 273 l 2,3,4
 263 211 263 211 323 206 c 1,5,-1
 622 206 l 2,6,7
 689 204 689 204 696 262 c 1,8,-1
 695 669 l 1,9,-1
 315 669 l 1,0,1
234 1109 m 1,11,-1
 234 1048 l 1,12,-1
 13 1049 l 1,13,-1
 13 1193 l 1,14,15
 9 1352 9 1352 152 1373 c 1,16,-1
 774 1371 l 1,17,18
 930 1363 930 1363 941 1186 c 1,19,-1
 942 831 l 2,20,21
 942 816 942 816 940 802 c 2,22,-1
 940 289 l 2,23,24
 940 0 940 0 634 0 c 2,25,-1
 254 0 l 2,26,27
 9 0 9 0 11 184 c 2,28,-1
 11 664 l 1,29,30
 7 869 7 869 241 873 c 1,31,-1
 695 873 l 1,32,-1
 694 1059 l 1,33,34
 700 1167 700 1167 583 1164 c 2,35,-1
 290 1164 l 1,36,10
 238 1158 238 1158 234 1109 c 1,11,-1
EndSplineSet
EndChar

StartChar: asciicircum
Encoding: 94 94 168
Width: 978
Flags: W
LayerCount: 2
Fore
SplineSet
76 702 m 1,0,-1
 2 702 l 1,1,-1
 2 924 l 1,2,-1
 346 1370 l 1,3,-1
 631 1370 l 1,4,-1
 975 929 l 1,5,-1
 975 706 l 1,6,-1
 901 706 l 1,7,-1
 487 1203 l 1,8,-1
 76 702 l 1,0,-1
EndSplineSet
EndChar

StartChar: bar
Encoding: 124 124 169
Width: 229
Flags: W
LayerCount: 2
Fore
SplineSet
244 1365 m 1,0,-1
 244 -343 l 1,1,-1
 -15 -343 l 1,2,-1
 -15 1365 l 1,3,-1
 244 1365 l 1,0,-1
EndSplineSet
EndChar

StartChar: underscore
Encoding: 95 95 170
Width: 1024
Flags: W
LayerCount: 2
Fore
SplineSet
1036 -105 m 1,0,-1
 1036 -316 l 1,1,-1
 0 -316 l 1,2,-1
 0 -105 l 1,3,-1
 1036 -105 l 1,0,-1
EndSplineSet
EndChar

StartChar: pi
Encoding: 960 960 171
Width: 1166
Flags: W
LayerCount: 2
Fore
SplineSet
375 776 m 1,0,-1
 375 4 l 1,1,-1
 164 4 l 1,2,-1
 164 776 l 1,3,-1
 -2 776 l 1,4,-1
 -2 987 l 1,5,-1
 1165 987 l 1,6,-1
 1165 776 l 1,7,-1
 1005 776 l 1,8,-1
 1005 4 l 1,9,-1
 794 4 l 1,10,-1
 794 776 l 1,11,-1
 375 776 l 1,0,-1
EndSplineSet
EndChar

StartChar: asciitilde
Encoding: 126 126 172
Width: 993
Flags: W
LayerCount: 2
Fore
SplineSet
382 1333 m 2,0,1
 337 1362 337 1362 298 1333 c 2,2,-1
 62 1155 l 1,3,-1
 1 1155 l 1,4,-1
 1 1330 l 1,5,-1
 262 1525 l 1,6,7
 340 1569 340 1569 408 1531 c 1,8,-1
 680 1355 l 1,9,10
 702 1335 702 1335 736 1370 c 1,11,-1
 919 1526 l 1,12,13
 971 1564 971 1564 997 1551 c 1,14,-1
 999 1369 l 1,15,-1
 775 1155 l 1,16,17
 712 1122 712 1122 649 1155 c 1,18,-1
 382 1333 l 2,0,1
EndSplineSet
EndChar

StartChar: mu
Encoding: 181 181 173
Width: 893
Flags: W
LayerCount: 2
Fore
SplineSet
0 968 m 1,0,-1
 234 968 l 1,1,-1
 234 308 l 2,2,3
 234 201 234 201 326 201 c 2,4,-1
 541 201 l 2,5,6
 609 201 609 201 609 308 c 2,7,-1
 609 967 l 1,8,-1
 849 967 l 1,9,-1
 851 185 l 2,10,11
 851 4 851 4 664 0 c 1,12,-1
 227 0 l 1,13,-1
 227 -351 l 1,14,-1
 0 -351 l 1,15,-1
 0 968 l 1,0,-1
EndSplineSet
EndChar

StartChar: Omega
Encoding: 8486 8486 174
Width: 1248
Flags: W
LayerCount: 2
Fore
SplineSet
944 212 m 1,0,-1
 1266 212 l 1,1,-1
 1266 1 l 1,2,-1
 711 1 l 1,3,-1
 711 212 l 1,4,-1
 741 212 l 1,5,6
 973 458 973 458 1015 672 c 0,7,8
 1057 892 1057 892 957 1017 c 0,9,10
 859 1140 859 1140 744.5 1166.5 c 128,-1,11
 630 1193 630 1193 514.5 1166.5 c 128,-1,12
 399 1140 399 1140 299 1016 c 0,13,14
 200 891 200 891 243 671 c 0,15,16
 284 457 284 457 515 212 c 1,17,-1
 546 212 l 1,18,-1
 546 1 l 1,19,-1
 -9 1 l 1,20,-1
 -9 212 l 1,21,-1
 312 212 l 1,22,23
 28 467 28 467 25 833 c 1,24,25
 54 1146 54 1146 254 1275 c 0,26,27
 451 1402 451 1402 625 1400 c 1,28,-1
 625 1401 l 1,29,30
 802 1405 802 1405 1002.5 1276 c 128,-1,31
 1203 1147 1203 1147 1232 834 c 1,32,33
 1229 467 1229 467 944 212 c 1,0,-1
EndSplineSet
EndChar

StartChar: Eth
Encoding: 208 208 225
Width: 1378
Flags: W
LayerCount: 2
Fore
SplineSet
367 603 m 1,0,-1
 367 205 l 1,1,-1
 996 207 l 1,2,3
 1055 212 1055 212 1055 274 c 2,4,-1
 1055 1006 l 1,5,6
 1050 1162 1050 1162 880 1162 c 2,7,-1
 367 1162 l 1,8,-1
 367 787 l 1,9,-1
 755 787 l 1,10,-1
 755 603 l 1,11,-1
 367 603 l 1,0,-1
120 787 m 1,12,-1
 120 1366 l 1,13,-1
 838 1366 l 2,14,15
 1308 1368 1308 1368 1308 977 c 2,16,-1
 1308 278 l 2,17,18
 1310 0 1310 0 936 0 c 2,19,-1
 120 0 l 1,20,-1
 120 603 l 1,21,-1
 -11 603 l 1,22,-1
 -11 787 l 1,23,-1
 120 787 l 1,12,-1
EndSplineSet
EndChar

StartChar: Thorn
Encoding: 222 222 226
Width: 1253
Flags: W
LayerCount: 2
Fore
SplineSet
338 418 m 1,1,-1
 338 -1 l 1,2,-1
 115 -1 l 1,3,-1
 115 1368 l 1,4,-1
 340 1368 l 1,5,-1
 340 1131 l 1,6,7
 349 1236 349 1236 522 1240 c 2,8,-1
 1015 1241 l 1,9,10
 1202 1233 1202 1233 1200 1047 c 2,11,-1
 1200 454 l 1,12,13
 1196 267 1196 267 1011 270 c 2,14,-1
 560 270 l 1,15,0
 352 275 352 275 338 418 c 1,1,-1
341 628 m 2,16,17
 343 485 343 485 495 481 c 1,18,-1
 889 481 l 2,19,20
 974 480 974 480 974 571 c 2,21,-1
 975 943 l 1,22,23
 984 1033 984 1033 887 1039 c 1,24,-1
 435 1039 l 1,25,26
 344 1035 344 1035 342 946 c 2,27,-1
 341 628 l 2,16,17
EndSplineSet
EndChar

StartChar: eth
Encoding: 240 240 227
Width: 1058
Flags: W
LayerCount: 2
Fore
SplineSet
365 669 m 1,0,1
 319 663 319 663 313 616 c 1,2,-1
 313 273 l 2,3,4
 313 211 313 211 373 206 c 1,5,-1
 672 206 l 2,6,7
 739 204 739 204 746 262 c 1,8,-1
 745 669 l 1,9,-1
 365 669 l 1,0,1
405 1164 m 1,10,-1
 340 1164 l 1,11,12
 288 1158 288 1158 284 1109 c 1,13,-1
 284 1048 l 1,14,-1
 63 1049 l 1,15,-1
 63 1193 l 1,16,17
 59 1352 59 1352 202 1373 c 1,18,-1
 541 1372 l 1,19,-1
 683 1588 l 1,20,-1
 860 1472 l 1,21,-1
 794 1372 l 1,22,-1
 824 1371 l 2,23,24
 980 1363 980 1363 991 1186 c 1,25,-1
 992 831 l 2,26,27
 992 816 992 816 990 802 c 2,28,-1
 990 289 l 2,29,30
 990 0 990 0 684 0 c 2,31,-1
 304 0 l 2,32,33
 59 0 59 0 61 184 c 2,34,-1
 61 664 l 1,35,36
 57 869 57 869 291 873 c 1,37,-1
 745 873 l 1,38,-1
 744 1059 l 1,39,40
 749 1155 749 1155 658 1164 c 1,41,-1
 494 912 l 1,42,-1
 316 1029 l 1,43,-1
 405 1164 l 1,10,-1
EndSplineSet
EndChar

StartChar: thorn
Encoding: 254 254 228
Width: 1085
Flags: W
LayerCount: 2
Fore
SplineSet
338 138 m 1,1,-1
 338 -401 l 1,2,-1
 115 -401 l 1,3,-1
 115 1368 l 1,4,-1
 340 1368 l 1,5,-1
 340 851 l 1,6,7
 349 956 349 956 522 960 c 2,8,-1
 825 961 l 1,9,10
 1012 953 1012 953 1010 767 c 2,11,-1
 1010 174 l 1,12,13
 1006 -13 1006 -13 821 -10 c 2,14,-1
 560 -10 l 1,15,0
 352 -5 352 -5 338 138 c 1,1,-1
341 348 m 2,16,17
 343 205 343 205 495 201 c 1,18,-1
 699 201 l 2,19,20
 784 200 784 200 784 291 c 2,21,-1
 785 663 l 1,22,23
 794 753 794 753 697 759 c 1,24,-1
 435 759 l 1,25,26
 344 755 344 755 342 666 c 2,27,-1
 341 348 l 2,16,17
EndSplineSet
EndChar

StartChar: onesuperior
Encoding: 185 185 229
Width: 855
Flags: W
LayerCount: 2
Fore
SplineSet
438 1366 m 1,0,-1
 438 1367 l 1,1,-1
 542 1367 l 1,2,3
 578 1360 578 1360 578 1324 c 2,4,-1
 578 605 l 1,5,-1
 438 605 l 1,6,-1
 438 1207 l 1,7,8
 430 1217 430 1217 404 1196 c 2,9,-1
 345 1147 l 1,10,-1
 345 1313 l 1,11,-1
 396 1353 l 2,12,13
 417 1368 417 1368 438 1366 c 1,0,-1
EndSplineSet
EndChar

StartChar: twosuperior
Encoding: 178 178 230
Width: 856
Flags: W
LayerCount: 2
Fore
SplineSet
324 1249 m 2,0,1
 283 1249 283 1249 280 1215 c 2,2,-1
 280 1164 l 1,3,-1
 132 1164 l 1,4,-1
 132 1198 l 2,5,6
 132 1373 132 1373 349 1372 c 2,7,-1
 510 1372 l 2,8,9
 712 1373 712 1373 716 1189 c 1,10,-1
 715 1094 l 2,11,12
 718 1063 718 1063 703.5 1023 c 128,-1,13
 689 983 689 983 641 964 c 1,14,-1
 334 814 l 2,15,16
 301 800 301 800 300 739 c 2,17,-1
 300 683 l 1,18,-1
 711 683 l 1,19,-1
 711 547 l 1,20,-1
 148 547 l 1,21,-1
 148 826 l 1,22,23
 143 903 143 903 211 943 c 1,24,25
 567 1080 567 1080 567 1099 c 2,26,-1
 567 1198 l 2,27,28
 568 1248 568 1248 517 1251 c 2,29,-1
 324 1249 l 2,0,1
EndSplineSet
EndChar

StartChar: threesuperior
Encoding: 179 179 231
Width: 857
Flags: W
LayerCount: 2
Fore
SplineSet
298 1248 m 2,0,1
 257 1248 257 1248 253 1214 c 1,2,-1
 253 1175 l 1,3,-1
 104 1175 l 1,4,-1
 104 1196 l 2,5,6
 104 1374 104 1374 303 1373 c 2,7,-1
 570 1373 l 2,8,9
 713 1374 713 1374 713 1253 c 2,10,-1
 713 1059 l 2,11,12
 716 979 716 979 642 978 c 1,13,14
 722 978 722 978 726 913 c 1,15,-1
 726 654 l 2,16,17
 727 541 727 541 577 541 c 2,18,-1
 289 541 l 1,19,-1
 289 541 l 1,20,-1
 279 540 l 1,21,22
 81 539 81 539 80 698 c 1,23,-1
 81 714 l 1,24,-1
 230 714 l 1,25,-1
 230 698 l 1,26,27
 234 663 234 663 273 666 c 2,28,-1
 536 666 l 1,29,30
 571 671 571 671 571 708 c 2,31,-1
 571 878 l 1,32,33
 567 905 567 905 539 910 c 1,34,-1
 251 910 l 1,35,-1
 251 1027 l 1,36,-1
 522 1027 l 1,37,38
 559 1031 559 1031 559 1069 c 2,39,-1
 559 1214 l 1,40,41
 555 1248 555 1248 512 1248 c 2,42,-1
 298 1248 l 2,0,1
EndSplineSet
EndChar

StartChar: multiply
Encoding: 215 215 232
Width: 1285
Flags: W
LayerCount: 2
Fore
SplineSet
639 830 m 1,0,-1
 834 1157 l 1,1,-1
 1105 1157 l 1,2,-1
 796 663 l 1,3,-1
 1102 192 l 1,4,-1
 822 190 l 1,5,-1
 641 487 l 1,6,-1
 454 190 l 1,7,-1
 177 192 l 1,8,-1
 482 663 l 1,9,-1
 175 1157 l 1,10,-1
 446 1157 l 1,11,-1
 639 830 l 1,0,-1
EndSplineSet
EndChar

StartChar: onehalf
Encoding: 189 189 233
Width: 2050
Flags: W
LayerCount: 2
Fore
SplineSet
438 1366 m 1,0,-1
 438 1367 l 1,1,-1
 542 1367 l 1,2,3
 578 1360 578 1360 578 1324 c 2,4,-1
 578 605 l 1,5,-1
 438 605 l 1,6,-1
 438 1207 l 1,7,8
 430 1217 430 1217 404 1196 c 2,9,-1
 345 1147 l 1,10,-1
 345 1313 l 1,11,-1
 396 1353 l 2,12,13
 417 1368 417 1368 438 1366 c 1,0,-1
1530 1368 m 1,14,-1
 1532 1273 l 1,15,-1
 576 -60 l 1,16,-1
 433 -59 l 1,17,-1
 433 42 l 1,18,-1
 1382 1368 l 1,19,-1
 1530 1368 l 1,14,-1
1522 700 m 2,20,21
 1481 700 1481 700 1478 666 c 2,22,-1
 1478 615 l 1,23,-1
 1330 615 l 1,24,-1
 1330 649 l 2,25,26
 1330 824 1330 824 1547 823 c 2,27,-1
 1708 823 l 2,28,29
 1910 824 1910 824 1914 640 c 1,30,-1
 1913 545 l 2,31,32
 1916 514 1916 514 1901.5 474 c 128,-1,33
 1887 434 1887 434 1839 415 c 1,34,-1
 1532 265 l 2,35,36
 1499 251 1499 251 1498 190 c 2,37,-1
 1498 134 l 1,38,-1
 1909 134 l 1,39,-1
 1909 -2 l 1,40,-1
 1346 -2 l 1,41,-1
 1346 277 l 1,42,43
 1341 354 1341 354 1409 394 c 1,44,45
 1765 531 1765 531 1765 550 c 2,46,-1
 1765 649 l 2,47,48
 1766 699 1766 699 1715 702 c 2,49,-1
 1522 700 l 2,20,21
EndSplineSet
EndChar

StartChar: onequarter
Encoding: 188 188 234
Width: 2050
Flags: W
LayerCount: 2
Fore
SplineSet
438 1366 m 1,0,-1
 438 1367 l 1,1,-1
 542 1367 l 1,2,3
 578 1360 578 1360 578 1324 c 2,4,-1
 578 605 l 1,5,-1
 438 605 l 1,6,-1
 438 1207 l 1,7,8
 430 1217 430 1217 404 1196 c 2,9,-1
 345 1147 l 1,10,-1
 345 1313 l 1,11,-1
 396 1353 l 2,12,13
 417 1368 417 1368 438 1366 c 1,0,-1
1530 1368 m 1,14,-1
 1532 1273 l 1,15,-1
 576 -60 l 1,16,-1
 433 -59 l 1,17,-1
 433 42 l 1,18,-1
 1382 1368 l 1,19,-1
 1530 1368 l 1,14,-1
1734 346 m 1,20,-1
 1734 542 l 1,21,-1
 1875 542 l 1,22,-1
 1875 1 l 1,23,-1
 1734 1 l 1,24,-1
 1734 211 l 1,25,-1
 1309 211 l 1,26,-1
 1309 474 l 1,27,-1
 1514 826 l 1,28,-1
 1643 826 l 1,29,-1
 1643 734 l 1,30,-1
 1455 409 l 1,31,-1
 1454 345 l 1,32,-1
 1734 346 l 1,20,-1
EndSplineSet
EndChar

StartChar: threequarters
Encoding: 190 190 235
Width: 2050
Flags: W
LayerCount: 2
Fore
SplineSet
1530 1368 m 1,0,-1
 1532 1273 l 1,1,-1
 576 -60 l 1,2,-1
 433 -59 l 1,3,-1
 433 42 l 1,4,-1
 1382 1368 l 1,5,-1
 1530 1368 l 1,0,-1
298 1248 m 2,6,7
 257 1248 257 1248 253 1214 c 1,8,-1
 253 1175 l 1,9,-1
 104 1175 l 1,10,-1
 104 1196 l 2,11,12
 104 1374 104 1374 303 1373 c 2,13,-1
 570 1373 l 2,14,15
 713 1374 713 1374 713 1253 c 2,16,-1
 713 1059 l 2,17,18
 716 979 716 979 642 978 c 1,19,20
 722 978 722 978 726 913 c 1,21,-1
 726 654 l 2,22,23
 727 541 727 541 577 541 c 2,24,-1
 289 541 l 1,25,-1
 289 541 l 1,26,-1
 279 540 l 1,27,28
 81 539 81 539 80 698 c 1,29,-1
 81 714 l 1,30,-1
 230 714 l 1,31,-1
 230 698 l 1,32,33
 234 663 234 663 273 666 c 2,34,-1
 536 666 l 1,35,36
 571 671 571 671 571 708 c 2,37,-1
 571 878 l 1,38,39
 567 905 567 905 539 910 c 1,40,-1
 251 910 l 1,41,-1
 251 1027 l 1,42,-1
 522 1027 l 1,43,44
 559 1031 559 1031 559 1069 c 2,45,-1
 559 1214 l 1,46,47
 555 1248 555 1248 512 1248 c 2,48,-1
 298 1248 l 2,6,7
1734 346 m 1,49,-1
 1734 542 l 1,50,-1
 1875 542 l 1,51,-1
 1875 1 l 1,52,-1
 1734 1 l 1,53,-1
 1734 211 l 1,54,-1
 1309 211 l 1,55,-1
 1309 474 l 1,56,-1
 1514 826 l 1,57,-1
 1643 826 l 1,58,-1
 1643 734 l 1,59,-1
 1455 409 l 1,60,-1
 1454 345 l 1,61,-1
 1734 346 l 1,49,-1
EndSplineSet
EndChar

StartChar: brokenbar
Encoding: 166 166 236
Width: 229
Flags: W
LayerCount: 2
Fore
SplineSet
246 314 m 1,0,-1
 246 -342 l 1,1,-1
 -23 -342 l 1,2,-1
 -23 314 l 1,3,-1
 246 314 l 1,0,-1
246 1366 m 1,4,-1
 246 668 l 1,5,-1
 -23 668 l 1,6,-1
 -23 1366 l 1,7,-1
 246 1366 l 1,4,-1
EndSplineSet
EndChar

StartChar: glyph237
Encoding: 65539 -1 237
Width: 1300
Flags: W
LayerCount: 2
Fore
SplineSet
542 1697 m 1,0,-1
 542 1517 l 1,1,-1
 343 1517 l 1,2,-1
 343 1697 l 1,3,-1
 542 1697 l 1,0,-1
961 1697 m 1,4,-1
 961 1517 l 1,5,-1
 762 1517 l 1,6,-1
 762 1697 l 1,7,-1
 961 1697 l 1,4,-1
EndSplineSet
EndChar

StartChar: glyph238
Encoding: 65540 -1 238
Width: 1300
Flags: W
LayerCount: 2
Fore
SplineSet
556 1452 m 1,0,-1
 500 1544 l 1,1,-1
 826 1763 l 1,2,-1
 928 1601 l 1,3,-1
 556 1452 l 1,0,-1
EndSplineSet
EndChar

StartChar: glyph239
Encoding: 65541 -1 239
Width: 1300
Flags: W
LayerCount: 2
Fore
SplineSet
364 1602 m 1,0,-1
 465 1763 l 1,1,-1
 792 1545 l 1,2,-1
 736 1453 l 1,3,-1
 364 1602 l 1,0,-1
EndSplineSet
EndChar

StartChar: glyph240
Encoding: 65542 -1 240
Width: 1300
Flags: W
LayerCount: 2
Fore
SplineSet
401 1459 m 1,0,-1
 364 1459 l 1,1,-1
 364 1556 l 1,2,-1
 623 1749 l 1,3,-1
 679 1749 l 1,4,-1
 938 1558 l 1,5,-1
 938 1461 l 1,6,-1
 901 1461 l 1,7,-1
 650 1646 l 1,8,-1
 401 1459 l 1,0,-1
EndSplineSet
EndChar

StartChar: glyph241
Encoding: 65543 -1 241
Width: 1300
Flags: W
LayerCount: 2
Fore
SplineSet
572 1610 m 2,0,1
 541 1631 541 1631 515 1610 c 2,2,-1
 355 1490 l 1,3,-1
 313 1490 l 1,4,-1
 313 1608 l 1,5,-1
 490 1741 l 1,6,7
 543 1771 543 1771 590 1745 c 2,8,-1
 774 1625 l 2,9,10
 789 1612 789 1612 812 1636 c 2,11,-1
 937 1742 l 2,12,13
 972 1768 972 1768 990 1759 c 1,14,-1
 991 1635 l 1,15,-1
 839 1490 l 1,16,17
 796 1467 796 1467 753 1490 c 1,18,-1
 572 1610 l 2,0,1
EndSplineSet
EndChar

StartChar: glyph242
Encoding: 65544 -1 242
Width: 1300
Flags: W
LayerCount: 2
Fore
SplineSet
706 1536 m 2,0,1
 734 1536 734 1536 734 1564 c 2,2,-1
 734 1681 l 2,3,4
 734 1709 734 1709 709 1708 c 2,5,-1
 586 1709 l 2,6,7
 557 1709 557 1709 558 1681 c 2,8,-1
 558 1564 l 2,9,10
 558 1536 558 1536 594 1536 c 2,11,-1
 706 1536 l 2,0,1
713 1791 m 2,12,13
 819 1789 819 1789 816 1694 c 2,14,-1
 816 1539 l 2,15,16
 816 1455 816 1455 714 1453 c 2,17,-1
 567 1453 l 2,18,19
 476 1456 476 1456 476 1540 c 2,20,-1
 476 1693 l 2,21,22
 476 1788 476 1788 574 1791 c 2,23,-1
 713 1791 l 2,12,13
EndSplineSet
EndChar

StartChar: glyph243
Encoding: 65545 -1 243
Width: 1105
Flags: W
LayerCount: 2
Fore
SplineSet
467 1697 m 1,0,-1
 467 1517 l 1,1,-1
 268 1517 l 1,2,-1
 268 1697 l 1,3,-1
 467 1697 l 1,0,-1
844 1698 m 1,4,-1
 844 1518 l 1,5,-1
 645 1518 l 1,6,-1
 645 1698 l 1,7,-1
 844 1698 l 1,4,-1
EndSplineSet
EndChar

StartChar: glyph244
Encoding: 65546 -1 244
Width: 1105
Flags: W
LayerCount: 2
Fore
SplineSet
458 1453 m 1,0,-1
 402 1545 l 1,1,-1
 728 1763 l 1,2,-1
 830 1602 l 1,3,-1
 458 1453 l 1,0,-1
EndSplineSet
EndChar

StartChar: glyph245
Encoding: 65547 -1 245
Width: 1105
Flags: W
LayerCount: 2
Fore
SplineSet
268 1601 m 1,0,-1
 369 1763 l 1,1,-1
 696 1544 l 1,2,-1
 640 1452 l 1,3,-1
 268 1601 l 1,0,-1
EndSplineSet
EndChar

StartChar: glyph246
Encoding: 65548 -1 246
Width: 1105
Flags: W
LayerCount: 2
Fore
SplineSet
299 1459 m 1,0,-1
 262 1459 l 1,1,-1
 262 1556 l 1,2,-1
 521 1749 l 1,3,-1
 577 1749 l 1,4,-1
 836 1558 l 1,5,-1
 836 1461 l 1,6,-1
 799 1461 l 1,7,-1
 548 1646 l 1,8,-1
 299 1459 l 1,0,-1
EndSplineSet
EndChar

StartChar: glyph247
Encoding: 65549 -1 247
Width: 504
Flags: W
LayerCount: 2
Fore
SplineSet
230 1698 m 1,0,-1
 230 1517 l 1,1,-1
 31 1517 l 1,2,-1
 31 1698 l 1,3,-1
 230 1698 l 1,0,-1
470 1697 m 1,4,-1
 470 1517 l 1,5,-1
 271 1517 l 1,6,-1
 271 1697 l 1,7,-1
 470 1697 l 1,4,-1
EndSplineSet
EndChar

StartChar: glyph248
Encoding: 65550 -1 248
Width: 504
Flags: W
LayerCount: 2
Fore
SplineSet
151 1505 m 1,0,-1
 95 1597 l 1,1,-1
 428 1763 l 1,2,-1
 530 1602 l 1,3,-1
 151 1505 l 1,0,-1
EndSplineSet
EndChar

StartChar: glyph249
Encoding: 65551 -1 249
Width: 504
Flags: W
LayerCount: 2
Fore
SplineSet
-47 1602 m 1,0,-1
 54 1764 l 1,1,-1
 388 1597 l 1,2,-1
 332 1505 l 1,3,-1
 -47 1602 l 1,0,-1
EndSplineSet
EndChar

StartChar: glyph250
Encoding: 65552 -1 250
Width: 504
Flags: W
LayerCount: 2
Fore
SplineSet
0 1459 m 1,0,-1
 -37 1459 l 1,1,-1
 -37 1555 l 1,2,-1
 222 1749 l 1,3,-1
 278 1749 l 1,4,-1
 537 1557 l 1,5,-1
 537 1461 l 1,6,-1
 500 1461 l 1,7,-1
 249 1646 l 1,8,-1
 0 1459 l 1,0,-1
EndSplineSet
EndChar

StartChar: glyph251
Encoding: 65553 -1 251
Width: 1507
Flags: W
LayerCount: 2
Fore
SplineSet
677 1610 m 2,0,1
 646 1630 646 1630 620 1610 c 2,2,-1
 460 1490 l 1,3,-1
 418 1490 l 1,4,-1
 418 1608 l 1,5,-1
 595 1741 l 1,6,7
 648 1771 648 1771 695 1745 c 2,8,-1
 879 1625 l 2,9,10
 894 1612 894 1612 917 1635 c 2,11,-1
 1042 1741 l 2,12,13
 1077 1767 1077 1767 1095 1758 c 1,14,-1
 1096 1635 l 1,15,-1
 944 1490 l 1,16,17
 901 1467 901 1467 858 1490 c 1,18,-1
 677 1610 l 2,0,1
EndSplineSet
EndChar

StartChar: glyph252
Encoding: 65554 -1 252
Width: 1328
Flags: W
LayerCount: 2
Fore
SplineSet
572 1697 m 1,0,-1
 572 1517 l 1,1,-1
 373 1517 l 1,2,-1
 373 1697 l 1,3,-1
 572 1697 l 1,0,-1
949 1698 m 1,4,-1
 949 1517 l 1,5,-1
 750 1517 l 1,6,-1
 750 1698 l 1,7,-1
 949 1698 l 1,4,-1
EndSplineSet
EndChar

StartChar: glyph253
Encoding: 65555 -1 253
Width: 1328
Flags: W
LayerCount: 2
Fore
SplineSet
552 1505 m 1,0,-1
 496 1597 l 1,1,-1
 829 1763 l 1,2,-1
 931 1602 l 1,3,-1
 552 1505 l 1,0,-1
EndSplineSet
EndChar

StartChar: glyph254
Encoding: 65556 -1 254
Width: 1328
Flags: W
LayerCount: 2
Fore
SplineSet
372 1602 m 1,0,-1
 473 1764 l 1,1,-1
 807 1597 l 1,2,-1
 751 1505 l 1,3,-1
 372 1602 l 1,0,-1
EndSplineSet
EndChar

StartChar: glyph255
Encoding: 65557 -1 255
Width: 1328
Flags: W
LayerCount: 2
Fore
SplineSet
407 1458 m 1,0,-1
 370 1458 l 1,1,-1
 370 1555 l 1,2,-1
 629 1749 l 1,3,-1
 685 1749 l 1,4,-1
 944 1557 l 1,5,-1
 944 1460 l 1,6,-1
 907 1460 l 1,7,-1
 656 1646 l 1,8,-1
 407 1458 l 1,0,-1
EndSplineSet
EndChar

StartChar: glyph256
Encoding: 65558 -1 256
Width: 1328
Flags: W
LayerCount: 2
Fore
SplineSet
586 1611 m 2,0,1
 555 1631 555 1631 529 1610 c 2,2,-1
 369 1490 l 1,3,-1
 327 1490 l 1,4,-1
 327 1609 l 1,5,-1
 504 1741 l 1,6,7
 557 1771 557 1771 604 1745 c 2,8,-1
 788 1625 l 2,9,10
 803 1612 803 1612 826 1636 c 2,11,-1
 951 1742 l 2,12,13
 986 1768 986 1768 1004 1759 c 1,14,-1
 1005 1635 l 1,15,-1
 853 1490 l 1,16,17
 810 1467 810 1467 767 1490 c 1,18,-1
 586 1611 l 2,0,1
EndSplineSet
EndChar

StartChar: glyph257
Encoding: 65559 -1 257
Width: 1226
Flags: W
LayerCount: 2
Fore
SplineSet
617 1562 m 1,0,-1
 868 1747 l 1,1,-1
 905 1747 l 1,2,-1
 905 1650 l 1,3,-1
 646 1459 l 1,4,-1
 590 1459 l 1,5,-1
 331 1652 l 1,6,-1
 331 1749 l 1,7,-1
 368 1749 l 1,8,-1
 617 1562 l 1,0,-1
EndSplineSet
EndChar

StartChar: glyph259
Encoding: 65560 -1 259
Width: 1376
Flags: W
LayerCount: 2
Fore
SplineSet
601 1697 m 1,0,-1
 601 1517 l 1,1,-1
 402 1517 l 1,2,-1
 402 1697 l 1,3,-1
 601 1697 l 1,0,-1
975 1698 m 1,4,-1
 975 1517 l 1,5,-1
 776 1517 l 1,6,-1
 776 1698 l 1,7,-1
 975 1698 l 1,4,-1
EndSplineSet
EndChar

StartChar: glyph260
Encoding: 65561 -1 260
Width: 1376
Flags: W
LayerCount: 2
Fore
SplineSet
584 1505 m 1,0,-1
 528 1597 l 1,1,-1
 861 1763 l 1,2,-1
 963 1602 l 1,3,-1
 584 1505 l 1,0,-1
EndSplineSet
EndChar

StartChar: glyph261
Encoding: 65562 -1 261
Width: 1376
Flags: W
LayerCount: 2
Fore
SplineSet
403 1602 m 1,0,-1
 504 1763 l 1,1,-1
 838 1597 l 1,2,-1
 782 1505 l 1,3,-1
 403 1602 l 1,0,-1
EndSplineSet
EndChar

StartChar: glyph262
Encoding: 65563 -1 262
Width: 1376
Flags: W
LayerCount: 2
Fore
SplineSet
443 1459 m 1,0,-1
 406 1459 l 1,1,-1
 406 1555 l 1,2,-1
 665 1749 l 1,3,-1
 721 1749 l 1,4,-1
 980 1558 l 1,5,-1
 980 1461 l 1,6,-1
 943 1461 l 1,7,-1
 692 1646 l 1,8,-1
 443 1459 l 1,0,-1
EndSplineSet
EndChar

StartChar: glyph263
Encoding: 65564 -1 263
Width: 1248
Flags: W
LayerCount: 2
Fore
SplineSet
535 1505 m 1,0,-1
 479 1597 l 1,1,-1
 812 1763 l 1,2,-1
 914 1602 l 1,3,-1
 535 1505 l 1,0,-1
EndSplineSet
EndChar

StartChar: glyph265
Encoding: 65565 -1 265
Width: 1248
Flags: W
LayerCount: 2
Fore
SplineSet
537 1697 m 1,0,-1
 537 1517 l 1,1,-1
 338 1517 l 1,2,-1
 338 1697 l 1,3,-1
 537 1697 l 1,0,-1
911 1697 m 1,4,-1
 911 1517 l 1,5,-1
 712 1517 l 1,6,-1
 712 1697 l 1,7,-1
 911 1697 l 1,4,-1
EndSplineSet
EndChar

StartChar: glyph266
Encoding: 65566 -1 266
Width: 457
Flags: W
LayerCount: 2
Fore
SplineSet
181 1291 m 1,0,-1
 181 1111 l 1,1,-1
 -18 1111 l 1,2,-1
 -18 1291 l 1,3,-1
 181 1291 l 1,0,-1
478 1291 m 1,4,-1
 478 1111 l 1,5,-1
 279 1111 l 1,6,-1
 279 1291 l 1,7,-1
 478 1291 l 1,4,-1
EndSplineSet
EndChar

StartChar: glyph267
Encoding: 65567 -1 267
Width: 457
Flags: W
LayerCount: 2
Fore
SplineSet
351 972 m 1,0,-1
 351 0 l 1,1,-1
 113 0 l 1,2,-1
 113 972 l 1,3,-1
 351 972 l 1,0,-1
EndSplineSet
EndChar

